<svg data-lit-media-id="10179" data-lit-media-name="Ageing" viewBox="0 0 250 250"><g class="lit-svg-primary-fill"><path d="m230.9,192.82s-13,8.3-37.35,8.35h-2.44c-24.39.06-37.39-8.19-37.39-8.19-1.65-9.35-1.53-38.95-1.44-45.71.22-18.45,6-28,12-32.86,14.99,15.47,39.68,15.85,55.15.86.27-.26.54-.53.8-.8,5.64,4.67,11,13.41,11.82,29.79.37,7.33.7,37.84-1.15,48.56Z" fill="#66d3ee"></path></g> <g class="lit-svg-secondary-fill"><path d="m97.47,193.08s-13,8.32-37.44,8.37h-2.44c-24.45,0-37.48-8.21-37.48-8.21-1.66-9.38-1.53-39.05-1.44-45.81.22-18.5,6-28,12-32.95,12.31,12.72,31.65,15.57,47.11,6.94,3.31-1.85,6.35-4.16,9-6.87,5.66,4.67,11,13.44,11.85,29.85.37,7.36.69,37.94-1.16,48.68Z" fill="#fff"></path></g> <g class="lit-svg-outline"><path d="m71.93,85.78v8.92" fill="#fff" stroke="#000" stroke-linecap="round" stroke-linejoin="round" stroke-width="4"></path> <path d="m47.7,85.83v8.92" fill="#fff" stroke="#000" stroke-linecap="round" stroke-linejoin="round" stroke-width="4"></path> <path d="m97.47,193.08s-13,8.32-37.44,8.37h-2.44c-24.45,0-37.48-8.21-37.48-8.21-1.66-9.38-1.53-39.05-1.44-45.81.22-18.5,6-28,12-32.95,12.31,12.72,31.65,15.57,47.11,6.94,3.31-1.85,6.35-4.16,9-6.87,5.66,4.67,11,13.44,11.85,29.85.37,7.36.69,37.94-1.16,48.68Z" fill="none" stroke="#000" stroke-linecap="round" stroke-linejoin="round" stroke-width="4"></path> <path d="m24.67,106.38c-10.52-18.83-3.78-42.62,15.05-53.13,18.83-10.52,42.62-3.78,53.13,15.05,10.51,18.83,3.78,42.61-15.05,53.13-18.79,10.53-42.56,3.83-53.09-14.96-.02-.03-.03-.06-.05-.09Z" fill="none" stroke="#000" stroke-linecap="round" stroke-linejoin="round" stroke-width="4"></path> <path d="m230.9,192.82s-13,8.3-37.35,8.35h-2.44c-24.39.06-37.39-8.19-37.39-8.19-1.65-9.35-1.53-38.95-1.44-45.71.22-18.45,6-28,12-32.86,14.99,15.47,39.68,15.85,55.15.86.27-.26.54-.53.8-.8,5.64,4.67,11,13.41,11.82,29.79.37,7.33.7,37.84-1.15,48.56Z" fill="none" stroke="#000" stroke-linecap="round" stroke-linejoin="round" stroke-width="4"></path> <path d="m158.27,106.31c-10.53-18.79-3.84-42.56,14.95-53.09,18.79-10.53,42.56-3.84,53.09,14.95s3.84,42.56-14.95,53.09c-.03.02-.06.03-.09.05-18.78,10.46-42.49,3.75-53-15Z" fill="none" stroke="#000" stroke-linecap="round" stroke-linejoin="round" stroke-width="4"></path> <path d="m153.38,186.16s13.62,8.21,37.72,8.16h2.41c24.09-.05,37.68-8.31,37.68-8.31l-.78,7.14s-12.81,8.26-36.9,8.31h-2.41c-24.1,0-36.94-8.16-36.94-8.16l-.78-7.14Z" fill="none" stroke="#000" stroke-linecap="round" stroke-linejoin="round" stroke-width="2"></path> <path d="m225.76,189.17v6.3" fill="#fff" stroke="#000" stroke-linecap="round" stroke-linejoin="round" stroke-width="2"></path> <path d="m221,190.75v6.3" fill="#fff" stroke="#000" stroke-linecap="round" stroke-linejoin="round" stroke-width="2"></path> <path d="m216.31,192.34v6.3" fill="#fff" stroke="#000" stroke-linecap="round" stroke-linejoin="round" stroke-width="2"></path> <path d="m211.59,193.14v6.3" fill="#fff" stroke="#000" stroke-linecap="round" stroke-linejoin="round" stroke-width="2"></path> <path d="m206.86,193.93v6.3" fill="#fff" stroke="#000" stroke-linecap="round" stroke-linejoin="round" stroke-width="2"></path> <path d="m202.13,194.72v5.51" fill="#fff" stroke="#000" stroke-linecap="round" stroke-linejoin="round" stroke-width="2"></path> <path d="m197.41,194.72v6.28" fill="#fff" stroke="#000" stroke-linecap="round" stroke-linejoin="round" stroke-width="2"></path> <path d="m192.68,194.72v6.28" fill="#fff" stroke="#000" stroke-linecap="round" stroke-linejoin="round" stroke-width="2"></path> <path d="m188,194.72v6.28" fill="#fff" stroke="#000" stroke-linecap="round" stroke-linejoin="round" stroke-width="2"></path> <path d="m183.23,194.72v5.51" fill="#fff" stroke="#000" stroke-linecap="round" stroke-linejoin="round" stroke-width="2"></path> <path d="m178.5,193.93v6.3" fill="#fff" stroke="#000" stroke-linecap="round" stroke-linejoin="round" stroke-width="2"></path> <path d="m173.78,193.14v6.3" fill="#fff" stroke="#000" stroke-linecap="round" stroke-linejoin="round" stroke-width="2"></path> <path d="m169.05,192.34v6.3" fill="#fff" stroke="#000" stroke-linecap="round" stroke-linejoin="round" stroke-width="2"></path> <path d="m164.33,190.75v6.3" fill="#fff" stroke="#000" stroke-linecap="round" stroke-linejoin="round" stroke-width="2"></path> <path d="m159.6,189.17v6.3" fill="#fff" stroke="#000" stroke-linecap="round" stroke-linejoin="round" stroke-width="2"></path> <path d="m208.39,192.32l-8.91-9,8.91-9,8.91,9-8.91,9Z" fill="none" stroke="#000" stroke-linecap="round" stroke-linejoin="round" stroke-width="2"></path> <path d="m208.39,174.85l-8.91-9,8.91-9,8.91,9-8.91,9Z" fill="none" stroke="#000" stroke-linecap="round" stroke-linejoin="round" stroke-width="2"></path> <path d="m208.39,156.6l-8.91-9,8.91-9,8.91,9-8.91,9Z" fill="none" stroke="#000" stroke-linecap="round" stroke-linejoin="round" stroke-width="2"></path> <path d="m210.06,122l6.92,7-8.91,9-8.91-9,4.26-4.29,6.64-2.71Z" fill="none" stroke="#000" stroke-linecap="round" stroke-linejoin="round" stroke-width="2"></path> <path d="m175.86,192.32l-8.91-9,8.91-9,8.91,9-8.91,9Z" fill="none" stroke="#000" stroke-linecap="round" stroke-linejoin="round" stroke-width="2"></path> <path d="m175.86,174.85l-8.91-9,8.91-9,8.91,9-8.91,9Z" fill="none" stroke="#000" stroke-linecap="round" stroke-linejoin="round" stroke-width="2"></path> <path d="m175.86,156.6l-8.91-9,8.91-9,8.91,9-8.91,9Z" fill="none" stroke="#000" stroke-linecap="round" stroke-linejoin="round" stroke-width="2"></path> <path d="m179.73,124.2l4.72,4.75-8.91,9-8.91-9,7.24-7.3,5.86,2.55Z" fill="none" stroke="#000" stroke-linecap="round" stroke-linejoin="round" stroke-width="2"></path> <path d="m172,76.79s7-3.13,19-3.09c7.07.06,14.09,1.1,20.87,3.09" fill="none" stroke="#000" stroke-linecap="round" stroke-linejoin="round" stroke-width="2"></path> <path d="m174,71.17c11.03-3.58,22.91-3.58,33.94,0" fill="none" stroke="#000" stroke-linecap="round" stroke-linejoin="round" stroke-width="2"></path> <path d="m218,92.58s2.69-4.1,7.87-1.82m-3.07,4c-2.83-1-3.85,0-3.85,0" fill="none" stroke="#000" stroke-linecap="round" stroke-linejoin="round" stroke-width="2"></path> <path d="m158.76,90.76c5.18-2.28,7.87,1.82,7.87,1.82m-.94,2.23s-1-1-3.86,0" fill="none" stroke="#000" stroke-linecap="round" stroke-linejoin="round" stroke-width="2"></path> <path d="m198.94,93.25c.63-4.15,4.21-7,8-6.45s6.31,4.42,5.67,8.57" fill="none" stroke="#000" stroke-linecap="round" stroke-linejoin="round" stroke-width="2"></path> <path d="m217.24,91.33c-.05,6.31-5.2,11.38-11.51,11.33-6.31-.05-11.38-5.2-11.33-11.51.05-6.27,5.15-11.33,11.42-11.33,6.33.03,11.44,5.18,11.42,11.51Zm-29.38.36h9.23m32.91-9.49l-12.72,9m-49.57.08c.05,6.31,5.2,11.38,11.51,11.33,6.31-.05,11.38-5.2,11.33-11.51-.05-6.27-5.15-11.33-11.42-11.33-6.33.03-11.45,5.18-11.42,11.52,0,.01,0,.03,0,.04v-.05Zm0-.08l-12.71-9" fill="none" stroke="#000" stroke-linecap="round" stroke-linejoin="round" stroke-width="2"></path> <path d="m172.36,95.37c-.63-4.15,1.91-8,5.68-8.57s7.34,2.3,8,6.45" fill="none" stroke="#000" stroke-linecap="round" stroke-linejoin="round" stroke-width="2"></path> <path d="m116.91,151.74c-.56,0-1.09-.22-1.48-.62l-2.28-2.27c-.83-.82-.84-2.16-.02-2.98,0,0,.01-.01.02-.02l11.12-11.1h-7.68c-1.16,0-2.1-.94-2.11-2.1v-2.8c.01-1.16.94-2.09,2.1-2.1l17.63.21c1.16,0,2.1.95,2.09,2.11h0s.21,17.54.21,17.54c0,1.17-.93,2.11-2.1,2.12h-2.8c-1.17,0-2.11-.94-2.12-2.11v-7.62l-11.07,11.12c-.4.4-.94.63-1.51.62Z" fill="none" stroke="#000" stroke-linecap="round" stroke-miterlimit="10" stroke-width="4"></path></g></svg>