<svg data-lit-media-id="22184" data-lit-media-name="Budget 2023-24" viewBox="0 0 113.36 113.91"><g fill="currentColor">
<path d="m46.59,37.9c-.04.06-.08.11-.15.15"></path> 
<path d="m47.92,27.5c.15,0,.28-.12.28-.28s-.12-.28-.28-.28-.28.13-.28.28.12.28.28.28"></path> 
<path d="m60.52,21.4h-3.05v-5.37h3.05v5.37Zm0,2.55c-.05.58-.25,1.06-.65,1.33l-2.4,1.43v-5.04h3.05v2.28Zm-3.32-2.55h-2.81v-5.37h2.81v5.37Zm0,5.48l-1.11.66h-.02c-.08.06-.18.1-.29.1s-.21-.04-.29-.11l-1.1-.66v-5.21h2.81v5.21Zm-3.95-7.45h.87v1.97h-.87v-1.97Zm.87,7.28l-2.4-1.43c-.4-.27-.6-.75-.65-1.33v-2.28h3.05v5.04Zm-1.99-8.62h-1.05v-2.07h1.05v2.07Zm.26-1.29l.12-.13-.08-.14.16.02.1-.17.1.17h.16s-.08.13-.08.13l.12.13-.16.03v.18l-.15-.11-.15.11v-.18l-.16-.03Zm.75,2.16c0-.05-.08-.07-.11-.07-.09,0-.13.16-.21.16-.06,0-.1,0-.1-.06,0-.05.12-.09.17-.14-.65,0-.66.3-.76.3-.17,0,.14-.31.23-.41-.13-.02-.21-.18-.35-.26.07-.1.11-.06.19.01,0-.07.05-.15.2-.15.29,0,.21.28.26.28s0-.28.19-.28c.29,0,.65.74.32.74-.14,0-.03-.11-.03-.13m-.7,1.58l.16.02.1-.17.1.17.16-.02-.08.14.12.13-.16.03v.18l-.15-.11-.15.11v-.18l-.16-.03.12-.13-.08-.14Zm-1.19-2l.16.02.1-.17.1.17.16-.02-.08.14.12.13-.16.03v.18l-.15-.11-.15.11v-.18l-.16-.03.12-.13-.08-.14Zm-.17.88h1.05v1.97h-1.05v-1.97Zm2.42-.61l.12-.13-.08-.14.16.02.1-.17.1.17.16-.02-.08.14.12.13-.16.03v.18l-.15-.11-.15.11v-.18l-.16-.03Zm.63-.72h-.87v-2.07h.87v2.07Zm6.69-2.34h0s-10.01,0-10.01,0h0s0,0,0,0v8.09c0,.78.34,1.46.79,1.67l3.85,2.3c.09.1.21.16.35.16.12,0,.23-.05.31-.12l3.91-2.34c.46-.21.79-.89.79-1.67v-8.09s0,0,0,0Z"></path> 
<path d="m53.95,23.53s-.38.12-.28.11c.01-.11.21-.33.31-.41-.02-.13-.18-.01-.35.08.57-.82.2-.48-.11-.42.51-.55.38-.54,0-.37.29-.23.36-.51.31-.59-.28.37-.53.31-.53.65,0,.22-.08.59-.2.72-.15.16-.03-.6-.42-.6-.13,0-.42,0-.51.14.08,0,.2.2.2.28s.07.3-.06.3-.29-.28-.29-.42,0-.1,0-.3c0-.32-.53-.78-.74-.78,0,.23.29.28.29.57-.13,0-.3-.23-.3-.09s.19.17.19.3-.21-.04-.21.09c0,.12.12.1.15.21-.09-.02-.16-.01-.18.03-.01.04.02.09.09.13-.03.03-.06.1-.06.28,0,.64.4.94.69.94.21,0,.18-.15.2-.22,0,.11.11-.05.11.13,0,.2-.2.11-.2.28,0,.23.32,0,.32.24,0,.31-.04.3-.04.42,0,.08.34-.11.31-.15.08.03.08.27.23.26.1,0,.12-.24.19-.26-.05.01.3.23.3.12,0-.3-.12-.17-.12-.38,0-.19.41-.15.35-.25-.05-.08-.09-.03-.14-.17,0,.03-.32-.47.07-.22.41.27.46-.63.44-.67"></path> 
<path d="m64.64,25.64c.18,0,.33-.13.33-.29s-.15-.29-.33-.29-.33.13-.33.29.15.29.33.29"></path> 
<path d="m63.31,26.44c.18,0,.33-.13.33-.29s-.15-.29-.33-.29-.33.13-.33.29.15.29.33.29"></path> 
<path d="m47.48,28.26c.18,0,.33-.13.33-.29s-.15-.29-.33-.29-.33.13-.33.29.15.29.33.29"></path> 
<path d="m48.5,28.35c.18,0,.33-.13.33-.29s-.15-.29-.33-.29-.33.13-.33.29.15.29.33.29"></path> 
<path d="m77,14.54c.49.58.59,1.51.24,2.18-.19-.02-.16-.26-.19-.4-.35-.65-.63-1.48-.31-2.22.23.04.14.32.26.44"></path> 
<path d="m35.18,15.33c-.11.42-.11,1,0,1.39-.09.09-.07-.09-.16-.07-.68-.49-.37-1.46-.54-2.15.03-.05.12-.07.17-.03.31.21.45.51.52.86"></path> 
<path d="m78.5,15.38c.1.19-.09.39-.23.48-.16.03-.33-.05-.44-.19-.05-.19.05-.37.21-.46.17-.02.35.02.45.18"></path> 
<path d="m34.12,16.15c-.03.16-.09.32-.23.39-.11,0-.26,0-.33-.09-.11-.09-.12-.25-.07-.37.07-.12.21-.14.33-.16.12.05.25.09.3.23"></path> 
<path d="m79.19,16.45c.03.11.03.18,0,.28-.12.16-.3.23-.47.16-.12-.07-.16-.19-.19-.3.03-.14.17-.26.3-.32.16,0,.26.09.37.18"></path> 
<path d="m78.19,16.47c.14.07.04.25.02.35-.09.09-.21.23-.37.17-.09-.09-.19-.09-.23-.21,0-.18.07-.35.24-.4.14-.04.23.04.33.09"></path> 
<path d="m76.91,16.73c0,.19.02.44-.21.48-.21.07-.35-.11-.4-.25-.02-.18.09-.35.26-.42.14,0,.26.09.35.19"></path> 
<path d="m36.02,16.82c.05.17-.12.28-.23.37-.12.04-.28-.07-.35-.19-.12-.12.03-.23.07-.33.17-.16.44-.03.51.16"></path> 
<path d="m34.97,16.88c0,.14-.07.28-.19.33-.14.05-.28-.05-.35-.16-.09-.17.02-.33.16-.4.19-.07.31.11.38.23"></path> 
<path d="m72.69,16.95c.17.37.31.81.35,1.27-.07.33.05.77-.19,1-.24-.09-.26-.39-.42-.54-.32-.62-.04-1.34.07-1.94.14-.05.14.12.19.21"></path> 
<path d="m34.15,17.16c.05.21-.11.32-.23.44-.21.05-.35-.1-.44-.25-.02-.18.09-.35.23-.42.17-.02.35.07.44.23"></path> 
<path d="m75.45,17.67c.23.51.25,1.13.09,1.69l-.11.09c-.24-.48-.59-.91-.72-1.43,0-.37.07-.7.21-1,.12-.09.19.02.24.12.02.19.1.42.28.53"></path> 
<path d="m77.65,17.35c-.02.18-.09.37-.26.42-.17.04-.35-.02-.4-.21-.05-.18.05-.33.19-.42.19-.11.38.07.47.21"></path> 
<path d="m34.99,17.9c0,.14-.12.3-.26.33-.14.11-.24-.07-.37-.12-.05-.14-.09-.26,0-.41.05-.11.17-.11.28-.14.16.09.31.16.35.33"></path> 
<path d="m35.76,17.81c.07.18-.12.26-.19.35-.21.07-.31-.09-.4-.21-.04-.18.07-.28.19-.39.21-.05.31.09.4.25"></path> 
<path d="m78.14,17.76c-.02.23-.37.46-.4.69-.19.48-.61.83-1.08.99-.11.09-.24.21-.4.23-.03-.35.28-.67.47-.98.37-.48.87-.77,1.42-.92"></path> 
<path d="m34.64,18.49c.26.3.4.56.72.83.02.07-.04.18-.12.18-.86-.05-1.43-.93-1.85-1.55.05-.19.28-.03.4-.05.3.23.63.3.86.6"></path> 
<path d="m78.38,18.74c-.03.76-.4,1.53-1.08,1.9-.19.07-.4.26-.59.14.37-.76.93-1.37,1.54-2.04h.14Z"></path> 
<path d="m75.03,19.25c.05.26-.09.42-.3.51-.19.02-.31-.14-.4-.28-.02-.18.09-.33.25-.39.05-.05.14-.05.21-.05.11.04.16.12.24.21"></path> 
<path d="m33.68,19.41c.33.23.63.55.94.83-.23.16-.51.02-.77.02-.59-.21-1-.72-1.61-.9.02-.19.24-.12.37-.18.39-.04.7.14,1.06.23"></path> 
<path d="m52.39,14.2c-.98-.39-1.62.63-2.62.51-.12.07-.09.19-.16.28-.05.05-.14.02-.19-.02-.05-.42-.19-.81-.24-1.21-.11-.18-.05-.42-.14-.6-.56-1.53,1.36-.37,1.75-1.27.33-.77-.65-.86-.94-1.41v-.23c-.28-.28-.58-.37-.75-.74.12-.44.17-.91.05-1.36-.02-.11-.09-.25-.24-.19-.33.46-.58.83-.89,1.27-.33-.25-.65-.56-1.03-.77-.26-.03-.51-.3-.8-.19-.05.11,0,.19.05.26.02.69.37,1.23.86,1.72l.05.26c-.32.72-.23,1.55-.32,2.32-.79,2-2.06,3.94-3.79,5.33-1,1.13-2.18,2.22-2.34,3.76-.05.25.03.55-.16.72-.58-.21-1.15-.49-1.62-.86-.8-.56-1.96-.49-2.48-1.51-.21-.4.05-.81.24-1.11.59-.56.51-1.57.19-2.25-.07-.02-.09.07-.14.09-.05,1.04-.87,1.76-.56,2.9.07.33.24.55.33.86-.12-.04-.3-.04-.4-.09-.38-.05-.77-.21-1.17-.16-.8.37-1.9-.09-2.55.65-.1.02-.24.04-.21.19.38,0,.75.11,1.14.09.61.1,1.01-.4,1.43-.63h.1c.17-.18.47-.07.7-.11,1.1.12,1.96.65,2.86,1.2v.07c-.35.16-.75.26-1.1.46-.4.3-.86.69-.98,1.18-.28.44.09.83.26,1.2.02.18.03.39.19.46.56-.6.03-1.34.12-2.02.14-.53.63-.77,1.14-.91,1-.42,1.71.39,2.51.84-.02.81.09,1.58-.09,2.38-.24.09-.56.14-.82.12-1.38.11-2.46.86-3.7,1.29-.56.19-1.22.18-1.78.39.44.12.89-.04,1.35-.05,1.71-.25,3.02-1.57,4.87-1.34l.04.05c-.21.44-.49.81-.82,1.14-.05-.19-.07-.35-.24-.46-.14-.07-.3,0-.4.14-.05.09-.05.19,0,.26.09.16.23.19.38.25-.03.16-.23.23-.33.37-.49.83-1.49.49-2.06,1.07-.09.12-.4.2-.26.39.66.07,1.31-.11,1.8-.46.65-.72,1.33-1.41,1.97-2.09.11.56-.05,1.14-.38,1.6-.16-.09-.28-.21-.47-.26-.17.03-.3.21-.31.35.07.12.14.26.26.35-.59.42-1.34.46-2.03.65-1.28.16-2.51.26-3.81.28-.61-.03-1.31.18-1.89,0-.66.12-1.38-.09-1.92.28-.07.09.02.18.02.26.8.53,1.91.11,2.81.27h6.88c.51-.02,1.01-.04,1.41-.27.89-.51,1.38-1.42,1.83-2.32.17-.32.3-.69.37-1.06.17-.6.72-1.02,1.31-1.07.09.91-.09,1.83-.3,2.67-.1.56-.47,1.11-.24,1.71.05.28.35.28.58.32,2.11-.04,4.23-.12,6.46.04.4.07.75.19,1.19.18.03-.05.16-.07.11-.18-.05-.19-.19-.44-.42-.49-.03-.11-.19-.07-.24-.14-1.12-.63-2.46-.3-3.77-.28-.68.07-1.36.19-1.94-.19-.26-.32-.07-1.32-.07-1.32,0-.4.96-3.17,1.08-3.4.03-.26.14-.51.11-.81.14-.35.11-.81.11-1.2.07-.56.35-1.09.54-1.64.11-.26.19-.55.3-.81.1-.33.14-.65.35-.91.57.36,1.13.35,1.4,1l.24,1.47c0,.09.07.26.19.16.45-.3.31-.97.31-1.42.1-.55-.28-.81-.44-1.29-.12-.09-.32-.51-.32-.51-.07-.39-.92-.65-.72-1.13.11-.4.21-.77.59-1,.06.04.08.08.09.13l.21-.15.02-1.47c.57,0,1.41.07,1.99.07.16.05.28.18.45.19l.14-.19,1.42-.28c-.6.07-.97-.62-1.54-.62"></path> 
<path d="m53.93,14.83s.09-.01.13-.02l-.13.02Z"></path> 
<path d="m38.71,19.73c.02.21-.11.33-.26.4-.14-.05-.24-.07-.33-.21-.07-.19.1-.33.24-.4.14.04.31.05.35.21"></path> 
<path d="m37.58,19.73c.11.11.12.28.07.4-.12.11-.31.19-.42.05-.11-.11-.21-.23-.12-.37.12-.12.33-.23.47-.09"></path> 
<path d="m61.89,19.92s0,.02.01.03"></path> 
<path d="m75.2,20.22c.07.19-.09.33-.23.4-.17-.05-.4-.09-.4-.32.02-.14.14-.23.26-.26.16-.05.3.07.37.18"></path> 
<path d="m76.13,20.18c.05.09.18.23.04.32-.07.05-.12.07-.18.14-.19.04-.37-.04-.42-.21-.03-.19.12-.28.26-.37.12-.04.21.05.3.12"></path> 
<path d="m33.19,20.39c-.07.21-.24.3-.47.23-.05-.05-.11-.14-.14-.23.02-.12.05-.25.19-.3.21.02.37.11.42.3"></path> 
<path d="m39.08,20.69c-.02.14-.18.26-.3.33-.18.02-.3-.12-.38-.25,0-.14.07-.32.21-.35.19-.07.4.07.47.26"></path> 
<path d="m38.05,20.57c.05.05.11.19.05.28-.1.09-.26.25-.44.14-.11-.09-.23-.16-.19-.33.07-.07.16-.18.26-.21.14-.04.21.05.31.12"></path> 
<path d="m78.8,20.78c0,.14-.14.28-.23.33-.14.05-.3.02-.39-.09-.1-.03-.07-.18-.07-.26.09-.12.21-.19.33-.23.16.03.26.14.35.25"></path> 
<path d="m79.92,20.94c-.05.16-.17.3-.33.32-.11-.02-.3-.05-.26-.21,0-.12.07-.25.16-.28.17-.09.38,0,.44.18"></path> 
<path d="m35.18,21.19c.04.21-.03.35-.21.42-.12.07-.24-.02-.33-.09-.09-.09-.16-.23-.09-.35.03-.16.19-.12.3-.19.16.02.25.09.33.21"></path> 
<path d="m36.04,21.34c.05.14-.11.19-.14.3-.09.05-.21.11-.31.04-.12-.11-.26-.26-.14-.42.14-.26.51-.12.59.09"></path> 
<path d="m77.77,21.26c.02.18-.14.3-.24.4-.16.03-.31-.07-.35-.21-.02-.14.07-.25.19-.33.16-.02.31,0,.4.14"></path> 
<path d="m79.2,21.54c-.04.16-.02.33-.19.44-.14.04-.31.02-.42-.07-.11-.09-.12-.25-.07-.37.09-.14.24-.25.42-.21.12.07.16.16.26.21"></path> 
<path d="m34.52,21.91c.07.14-.09.18-.14.25-.12.07-.24.02-.35-.04-.12-.07-.07-.25-.05-.33.16-.3.47-.09.54.12"></path> 
<path d="m78.1,22.24c.07.02.04.12.02.16-.42.21-1.05.26-1.42-.07-.21-.18-.47-.25-.7-.39.09-.23.4-.21.63-.26.51.07.91.54,1.47.56"></path> 
<path d="m35.36,22.08c.03.14-.07.19-.11.3-.07.11-.21.07-.3.03-.16-.11-.23-.3-.12-.44.19-.19.42-.09.52.11"></path> 
<path d="m36.89,22.19c.07.16-.04.3-.17.39-.12.07-.23-.04-.33-.05-.09-.12-.24-.26-.09-.41.16-.26.47-.12.59.07"></path> 
<path d="m57.09,22.93c-.03.35-.61-.05-.53.42.08.33.15.74.35.99.17.23.08.6.07.89-.15.25-.4.43-.66.57-.5-.05-1.23.25-1.46-.37-.1-.27-.28-.53-.28-.84.05-.03.12-.03.17-.08,0-.12-.13-.18-.12-.3.56-.1-.23-.6.25-.63.4.42,1.05.28,1.39.73.08.07.15.17.25.22-.07-.42-.27-.84-.33-1.29-.05-.23.03-.45.2-.58.3-.23.55.1.71.28"></path> 

<path d="m38.43,22.82c.05.18-.09.28-.19.37-.16.07-.25-.11-.31-.19-.05-.18.07-.26.17-.35.12,0,.26.05.33.18"></path> 

<path d="m49.21,23c.21.69.14,1.39-.21,1.97-.02.14.04.37-.16.35-.47-.65-.12-1.57.07-2.25.03-.18.24-.25.3-.07"></path> 

<path d="m64.16,23.33c.24.49.26,1.14.03,1.64l-.14.14c-.19-.41-.35-.81-.4-1.25.09-.32.19-.6.21-.93.25-.05.23.26.3.4"></path> 

<path d="m39.79,23.53c-.11.21-.4.26-.59.4-.42.32-1.03.39-1.55.3.45-.63,1.15-1,1.99-.83.04.07.12.04.16.12"></path> 

<path d="m32.61,24.16c.65.46.82,1.09,1.2,1.72.05.07.23.09.16.23-.14.11-.28-.11-.47-.07-.66-.3-1.08-1.04-1.06-1.81,0-.07.1-.07.17-.07"></path> 

<path d="m63.48,24.7c.02.18-.02.35-.16.41-.19.05-.35-.05-.4-.21-.05-.12.05-.19.09-.28.14-.14.38-.07.47.09"></path> 

<path d="m70.85,25.64c0-.33.09-.65.12-.97.05-.11.09-.23.07-.37.42-.56,1.28-.39,1.94-.33.26.14.59.12.87.19.12-.09.3-.11.44-.09.56-.3.19-.95.23-1.46l-.21-.53c-.05-.11-.11-.23-.14-.35-.1-.12-.17-.35-.28-.48-.3-.77-.87-1.21-1.36-1.83-.89-1.16-2.29-1.81-3.69-2.27-1.38-.48-2.78.14-4.02.58-.38-.11-.58-.4-.68-.74-.07-.67.07-1.32.33-1.86.05-.44.35-.77.47-1.18.31-.99.65-1.95.72-3.03.04-.65-.45-1.11-.94-1.39-.33-.09-.72-.07-.96.19-.23.48-.72.79-1.14,1.02-.03.3.33.11.45.21.38.07.82-.05,1.14.19.03.7-.37,1.28-.73,1.81-.59.88-1.22,1.78-1.59,2.75l-.07-.07.08,4.3c.56.93,1.25,1.98,2.29,2.33.56.46,1.26,1,2.01.6.4-.12.44.44.63.67.21.65-.26,1.11-.3,1.71l-.46.97c-.52,1.02-.99,2.11-1.8,2.97-.26,0-.42.28-.68.3-.14.19-.42.05-.59.12-.54.23-1.31.09-1.68.6.04.05.09.07.14.09,1.06.02,2.25.09,3.39.04.14-.05.26-.18.28-.33-.16-.3.05-.56.19-.79.09-.42.37-.69.49-1.09.37-.72.79-1.43,1.19-2.15l.54-.88c.12-.3.33-.67.54-.99.14-.14.21-.3.31-.47.02-.18-.07-.25-.17-.37.12-.12.31-.09.47-.12.44.26.89.69.98,1.16l.16.46.07.21-.04.58.07.54c.09.85-.07,1.71-.16,2.55-.3,1.02-1.47.91-2.31,1.14-.21.14-.61.07-.61.42,1.01.21,2.2.09,3.28.07.18-.07.21-.23.3-.39.03-.23.26-.42.19-.67-.19-.25-.02-.63-.07-.97.03-.09.03-.21,0-.33.14-.51.1-1.13.21-1.62l.07-.67Z"></path> 
<path d="m79.45,24.95c-.56.79-1.15,1.69-2.13,1.97-.07,0-.14.03-.17-.05.59-.63.91-1.62,1.83-1.85.14-.07.33-.14.47-.07"></path> 

<path d="m31.76,25.81c-.09.07-.02.23-.17.25-.14.07-.3-.02-.37-.16-.07-.18.09-.35.23-.39.14.07.28.12.31.3"></path> 

<path d="m36.79,26.06c.05.16-.12.16-.21.19-.73.26-1.49.02-2.01-.51,0-.07,0-.14.07-.16.72.17,1.56.03,2.15.48"></path> 

<path d="m32.72,25.83c.04.07.05.19.04.26-.11.16-.26.19-.44.16-.11-.05-.16-.12-.23-.23.02-.18.16-.28.3-.33.14.02.24.05.33.14"></path> 

<path d="m49.09,25.92c.03.16-.1.26-.21.33-.16.03-.3-.04-.37-.14-.05-.12,0-.3.12-.33.16-.03.4-.02.45.14"></path> 

<path d="m80.11,25.99c.05.18-.1.26-.23.37-.1.05-.23,0-.33-.05-.02-.09-.12-.16-.09-.28.07-.16.23-.23.4-.21.09.07.16.09.25.18"></path> 

<path d="m81.26,25.92c.1.16.02.28-.07.4-.07.12-.21.16-.31.11-.11-.11-.25-.16-.26-.32,0-.14.16-.25.26-.3.17-.07.24.11.38.11"></path> 

<path d="m31.02,26.43c.02.12-.09.19-.12.3-.09.03-.18.11-.28.07-.12-.05-.21-.16-.26-.28.04-.16.14-.3.31-.35.14.04.3.11.35.26"></path> 

<path d="m67.81,26.43c.04.07.02.16.02.23-.11.14-.25.26-.42.18-.1-.11-.23-.21-.17-.37.14-.19.44-.26.58-.04"></path> 

<path d="m33.84,26.69c-.03.12-.09.25-.25.26-.16.02-.21-.12-.3-.19,0-.16-.02-.32.14-.4.21-.07.4.11.4.33"></path> 

<path d="m32.16,26.73c.05.17-.07.3-.18.39-.21.07-.38-.09-.47-.25.02-.16.14-.35.31-.4.16,0,.25.18.33.26"></path> 

<path d="m68.97,26.69c.04.18-.02.35-.19.42-.21.07-.38-.11-.47-.25.09-.14.11-.33.31-.37.16,0,.26.07.35.19"></path> 

<path d="m32.98,26.76c.05.12-.05.18-.09.26-.09,0-.14.11-.24.07-.07-.09-.21-.12-.23-.25-.02-.18.1-.26.23-.33.17-.02.28.11.33.25"></path> 

<path d="m79.15,26.9c-.05.14-.16.21-.3.28-.14.03-.23-.09-.33-.14-.09-.07-.05-.23-.02-.32.17-.3.65-.16.65.17"></path> 

<path d="m80.48,26.98c-.05.19-.24.28-.42.3-.16-.07-.33-.19-.21-.4.07-.07.1-.14.21-.16.21-.07.37.09.42.26"></path> 

<path d="m72.18,27.1c.09.23-.12.3-.26.4-.12-.02-.23-.07-.33-.14-.03-.19.05-.37.25-.46.16,0,.24.07.35.19"></path> 

<path d="m67.38,27.31c.09.03.05.16.03.21-.1.07-.24.25-.4.14-.12-.07-.21-.18-.17-.33.09-.19.45-.21.54-.02"></path> 

<path d="m68.36,27.43c.02.14-.02.21-.14.28-.12.12-.26-.02-.38-.05-.03-.07-.07-.18-.02-.26.05-.07.14-.12.23-.14.12.04.26.04.31.18"></path> 

<path d="m38.71,27.45c.1.11-.02.23-.04.33-.09.11-.28.19-.44.09-.17-.07-.16-.3-.12-.44.1-.03.1-.16.24-.16.16.02.24.09.35.18"></path> 

<path d="m74.05,27.52c.04.18-.14.25-.26.28-.21.07-.32-.09-.4-.23,0-.1.1-.17.14-.26.25-.11.4.07.52.21"></path> 

<path d="m73.11,27.52c.07.18-.12.26-.19.35-.12.05-.28.04-.38-.07-.09-.05-.09-.16-.09-.26.1-.09.16-.19.28-.23.16,0,.31.09.38.21"></path> 

<path d="m80.99,27.73c.03.25-.28.12-.4.2-.73.44-1.68.11-2.38-.16.05-.23.31-.14.45-.23.75-.47,1.52.11,2.27.14l.05.05Z"></path> 

<path d="m33.17,27.52l-.07.12c-.65.39-1.49.65-2.25.4l-.07-.11c.65-.47,1.5-.6,2.34-.47l.05.05Z"></path> 

<path d="m75.83,27.64c0,.14-.07.26-.17.33-.17.05-.4,0-.45-.19-.05-.14.09-.28.23-.33.12,0,.33.02.4.19"></path> 

<path d="m36.3,27.71c-.07.14-.03.28-.21.35-.17.07-.38-.09-.44-.23-.05-.19.09-.25.17-.33.21-.11.37.05.47.21"></path> 

<path d="m35.06,27.8c.05.12-.05.19-.09.28-.09.11-.24.09-.35.05-.12-.11-.25-.23-.19-.42.11-.09.16-.14.28-.19.16.04.31.11.35.28"></path> 

<path d="m77.05,28.21c-.02.16-.14.28-.28.32-.14.02-.26-.09-.33-.18-.05-.11-.03-.25.07-.33.03-.05.16-.05.23-.09.16.02.28.14.31.28"></path> 

<path d="m33.77,28.01c.05.14-.07.19-.09.3-.05.3-.24.49-.38.76-.33.4-.8.4-1.28.53l-.07-.14c.51-.65,1.05-1.16,1.77-1.48l.05.03Z"></path> 

<path d="m76.18,28.4c.04.21-.14.25-.26.33-.16,0-.28-.09-.35-.21-.05-.19.12-.26.23-.35.17-.03.33.09.38.23"></path> 

<path d="m35.78,28.4s.02.07.05.09c-.02.19-.16.25-.26.33-.16,0-.28-.05-.38-.17-.07-.16,0-.35.18-.41.16-.02.37,0,.42.16"></path> 

<path d="m79.4,28.93c.17-.02.21-.23.4-.26.17-.04.33.07.42.19.07.21-.09.32-.23.4-.12.09-.38-.11-.37.12.12.09.23.21.24.35-.03.07-.16.05-.21.02-.51-.21-1.05-.56-1.26-1.09-.07-.16-.4-.28-.21-.42.51-.03.93.37,1.21.69"></path> 

<path d="m81.07,28.38c.09.09.05.25-.02.33-.09.18-.35.11-.51.09-.09-.09-.17-.18-.14-.32.07-.11.14-.18.26-.23.16-.04.28.03.4.12"></path> 

<path d="m74.73,29.33c.16.19.31.49.38.7-.03.05-.12.03-.16.03-.59-.33-1.36-.7-1.59-1.41-.05-.07-.19-.16-.17-.28.45-.09.89.25,1.21.49.12.18.26.26.33.46"></path> 

<path d="m34.8,28.66c.07.16-.07.28-.16.35-.19.03-.3-.04-.4-.14-.12-.19.11-.35.25-.42.14-.02.23.12.31.21"></path> 

<path d="m76.91,29.07c.02.11-.12.18-.17.25-.14.02-.28.07-.4-.05-.03-.09-.12-.23-.02-.32.19-.25.47-.05.59.12"></path> 

<path d="m81.26,29.32c.05.21-.11.35-.24.44-.17.05-.31-.07-.42-.16-.09-.11-.02-.21,0-.33.12-.11.28-.19.46-.12.07.05.14.09.21.18"></path> 

<path d="m69.18,31.74c0,.21-.38.16-.54.32-.54.28-1.19.28-1.83.26v-.11c.63-.53,1.54-.72,2.38-.48"></path> 

<path d="m43.69,32.5c-.02.16-.11.25-.26.3-.12,0-.24-.07-.3-.18-.07-.21.11-.3.23-.39.16.02.3.14.33.26"></path> 

<path d="m68.88,32.69c-.04.16-.09.33-.26.4-.16.04-.26-.05-.39-.12-.09-.07-.03-.19-.05-.28.12-.32.58-.32.7,0"></path> 

<path d="m72.36,32.76c-.44.28-.93.62-1.5.62l-.94-.02-.09-.07c.58-.7,1.63-.7,2.53-.63v.11Z"></path> 

<path d="m38.9,33.18c0,.16-.07.28-.23.33-.17.04-.3-.03-.37-.16-.07-.16,0-.32.14-.4.19-.12.39.09.45.23"></path> 

<path d="m39.78,33.36c.05.09-.03.14-.07.23-.1.05-.24.09-.33,0-.12-.07-.16-.2-.11-.3.05-.11.16-.09.21-.16.12.05.24.11.3.23"></path> 

<path d="m33.09,35.14c-.17.21-.45-.05-.65-.16-.61-.35-.59-1.04-1.2-1.44.07-.21.23.02.35-.02.1.07.24.14.37.19.59.34.73.9,1.13,1.43"></path> 

<path d="m56.23,34.8c-.07.21-.21.39-.19.62l-.07.03c.05-.26-.21-.42-.14-.7-.14-.21-.14-.48-.26-.7-.16-.28.14-.4.26-.6.24.11.33.34.51.55.11.3-.12.53-.11.81m27.78-6.49c-.28-.51-.75-.72-1.31-.72-.45.04-.79.34-.98.72-.1.39.03.74.33.97.12.05.28.04.35-.09.09-.23-.16-.23-.19-.41-.07-.24.02-.46.19-.61.17-.18.47-.09.68-.09.21.14.42.26.52.51.11.3.11.63,0,.93-.19.44-.63.79-1.08.88-1.45.21-17.36.14-17.36.14-1.87.18-4-.35-5.61.63-.73.35-1.1,1.16-1.29,1.88-.47.42-.98.92-1.36,1.39l-.05-.05c.09-.42.28-.79.37-1.22.26-.35.26-.83.45-1.21.66-1.07,1.29-2.16,2.32-2.92.44-.58,1.2-.48,1.87-.48.72.33,1.55.44,2.43.35.03-.04.05-.07.05-.12-.24-.23-.65-.32-.93-.54-.7-.33-1.36.11-2.1.05-.03-.03-.07-.05-.05-.11.66-.49,1.42-.84,2.17-1.16.61-.33,1.26-.51,1.9-.76.26,0,.51-.23.75-.07l.93-.25s.07.07.14.05c.79-.27,1.78-.02,2.67-.04l.12.1.84.21c.31.04.45.4.79.42.17-.25-.19-.35-.28-.51.39-.09.82.02,1.17.18l-.17.19c-.11.19.05.33.21.4.12.04.21-.05.3-.09.23-.16-.02-.32.05-.46,1.29.23,2.53.55,3.72,1.06.33.11.65.35,1.01.33-.37-.33-.87-.51-1.33-.7-.3-.18-.72-.19-.94-.44.05-.09.17-.05.23-.12.59-.07,1.1-.51,1.52-.98.03-.11.23-.07.21-.21-.16-.18-.42.05-.63.04-.73.14-1.05,1-1.78,1.16-.89-.21-1.8-.42-2.69-.65-.44-.07-.91-.11-1.31-.28l-.98-.09h-1.78s-.07-.05-.05-.11c.63-.16,1.17-.53,1.8-.69l4.68-2.15c.49-.44.93-.93,1.33-1.44.02-.14-.07-.28-.19-.33-.12-.05-.26-.04-.35.07-.21.16,0,.35,0,.55-.21.28-.54.53-.8.69-.07-.02-4.82,2.16-4.82,2.16-.7.3-1.4.63-2.13.79l-1.01.16c-.07.21-.25.34-.44.41-.28.05-.51.23-.8.23-2.27.88-4.63,1.81-6.43,3.61.1-.21.16-.47.17-.74-.04-.26-.02-.56-.19-.77-.04-.1-.17-.38-.13-.48l-.26.17c-.16.39-.3,1.09-.14,1.49.05.32.31.69.07.97-.84,1.02-1.31,2.25-1.87,3.41-.21-.04-.32-.23-.4-.42.59-.76,1.07-1.6,1.24-2.57.12-.09.04-.32.16-.42-.03-.28.16-.56.02-.79.11-.38-.51-.74-.11-.99l-.33.16c-.75.99.39,2.46-.47,3.41v.07c-.25.32-.37.63-.7.84-.42-.18-.58-.65-.82-1-.39-.37-.39-1.13-.16-1.64.16-.51-.11-.95-.16-1.41l-.17-.1c-.42.54-.58,1.41-.25,2.06.17.32.19.76.45,1.02.16.51.47.85.75,1.3.07.18-.11.21-.19.3-.19-.12-.16-.4-.33-.53-.58-1.23-1.33-2.22-2.24-3.22-.04-.16-.19-.3-.11-.47.33-.32.4-.93.23-1.34-.03-.09-.14-.19-.12-.28l-.26-.21c.04.62-.37,1.16-.19,1.81v.03c-1.8-1.35-3.79-2.56-5.82-3.51l-.16.45c.51.13,1.87.96,1.87.96.61.23,1.17.6,1.75.93,2.38,1.32,3.95,3.5,5.01,5.93.02.19.19.4.07.6-.37-.56-.89-.88-1.33-1.34-.12-.83-.61-1.62-1.33-1.95-.26-.39-.82-.42-1.26-.55l-6.36-.03c-5.17-.07-9.89.16-15.02.07-.72-.07-1.59-.32-1.8-1.07-.14-.26-.14-.72,0-.97.19-.33.54-.44.89-.48.28.03.47.3.59.49,0,.23-.19.44-.28.63.02.07.09.21.21.16.23-.09.4-.33.45-.56.02-.12.07-.3-.05-.39-.1-.37-.49-.63-.82-.72-.44-.03-.89.09-1.19.41-.42.35-.4.99-.28,1.48.28.77,1.1,1.3,1.89,1.41l17,.07c1.66.09,3.53-.19,5.21.14.61.19,1.26.65,1.42,1.34-.02.03-.07.02-.12.02-1.38-.9-3.2-1.23-4.96-1.02-.7-.04-1.33.23-1.96.4-.33.07-.65-.09-.86-.28-.63-.56-1.73-.53-2.53-.32,0,.05-.02.11.02.12.86-.07,1.36.67,2.13.76.17.04.31-.16.47-.02-.8.39-1.57.84-2.43,1.09-.26-.05-.4-.3-.61-.44-.33-.37-.94-.21-1.4-.25-.16.03-.3-.07-.4,0,.14.28.45.44.75.58.44.19.94-.02,1.34.25-.1.12-.25.16-.37.25-.82.32-1.5,1.06-2.41,1-.96.11-1.94-.18-2.59-.84-.28-.69-1-1.06-1.76-1.02-.05.03-.12.03-.11.12.38.23.68.69,1.07.95.24.3.72,0,.94.33.33.23.75.42,1.14.49.28.12.59.18.91.25l-.12.07c-1.59.53-3.42.58-5.21.51-.52-.02-1.03-.17-1.55-.16.09.11.26.19.42.25-.14.09-.3.12-.47.14-.21.05-.45.07-.66.18-.28-.02-.52.09-.75.18-.3.32-.65.65-1,.81,0,.07-.02.18.07.18.33-.14.75-.03,1.08-.18.58-.05.91-.69,1.36-.95.49-.39,1.19-.3,1.78-.21.35.09-.04.23.07.46.14.12.26.26.45.21.03-.04.07-.07.12-.09.11-.14.09-.3.02-.44.24-.16.58.02.84-.09.66-.02,1.33-.16,1.97-.18.1-.02.23-.12.33-.02-.05.14-.23.16-.16.35.03.16.21.23.35.26.17-.07.33-.19.26-.42-.03-.12-.17-.14-.26-.19.37-.18.79-.23,1.15-.41.26-.05.51-.14.73-.25.23-.02.42-.23.63-.14-.09.3-.21.58-.37.84-.28.93-.49,2.17,0,3.06.05.02.07-.02.11-.03-.37-.93-.16-2.01.16-2.89.24-1.5,1.78-1.94,2.88-2.5l.05.07c-.3.77-.73,1.51-.66,2.45.03.16-.07.32,0,.42.3-.16.49-.51.65-.81.12-.79-.33-1.78.47-2.36,1.43-.56,2.78-1.3,4.44-1.32.05.05.17-.04.19.07-.35.39-.85.76-1.01,1.23-.56.77-.54,2.1-.3,3.04.16.55-.31.84-.54,1.27-.11.15-.14.41-.24.58l.34.04c.3-.32.58-.7.59-1.16.03.18.19.32.33.35.12-.19-.11-.33-.12-.53.28-.16.4.19.63.26.37.09.68.25,1.07.25l.12-.12c-.38-.6-1.15-.7-1.82-.74-.35-.58-.35-1.3-.31-2.01.07-.37.14-.76.35-1.09.09-.25.33-.48.49-.67.32-.3.72-.51,1.1-.6h.05s.02.05.02.05c-.47.37-.52.88-.8,1.34-.3.44-.44,1.04-.16,1.53.11.23.05.58.3.74.23-.32.25-.72.37-1.07-.05-.58-.4-1.13-.07-1.69.18-.44.54-.62.94-.77.96-.09,1.8.4,2.64.77.18.12.47.23.51.48-.02.48-.28.95-.65,1.18-.47.28-1.15.32-1.59-.02-.26-.26-.37-.72-.28-1.07.19-.21.45-.39.77-.28.17.09.33.26.56.16.09-.05.12-.19.07-.28-.19-.11-.26-.37-.52-.41-.33-.05-.73-.04-.96.19-.37.32-.51.79-.4,1.23.12.56.54.97,1.08,1.13.8.19,1.64-.05,2.15-.74.21-.23.26-.47.39-.76.84.51,1.47,1.41,1.8,2.32,0,.3.09.62.02.88l.61.05c-.05-.14,0-.3.05-.42.23-1.16.94-2.13,1.8-2.89.3-.17.23.23.3.35.26.67.87,1.15,1.52,1.34.73.12,1.43-.05,1.89-.62.23-.42.51-1.04.12-1.48-.24-.3-.58-.46-.96-.46-.45,0-.73.32-.96.65,0,.14-.02.3.11.37.07,0,.21.02.26-.09.03-.26.26-.39.47-.53.19-.11.4,0,.56.11.19.16.23.42.24.69-.03.33-.26.69-.58.83-.51.26-1.24.14-1.68-.16-.21-.23-.33-.49-.49-.77-.04-.28-.14-.53,0-.81.77-.46,1.57-.79,2.5-.88.37.07.68.32.93.58.8.83-.17,2.01.38,2.92.21-.04.21-.32.3-.49.26-.63-.07-1.32-.23-1.94-.21-.39-.33-.72-.66-1.04.09-.03.12-.03.21-.03.37.25.77.53,1.07.91.51.83.77,1.81.68,2.89-.14.53-.7.77-1.14.97-.17.14-.38.35-.47.56.21.12.51,0,.72-.09.33-.12.52-.55.75-.74.03.02.02.07.03.11.02.19-.09.46.09.51.09-.25.11-.6.16-.9.23.25.26.56.33.88.16.32.42.74.84.79.11-.16-.02-.32-.05-.46-.05-.44-.42-.67-.66-.98-.61-.85-.33-2.16-.8-3.11-.17-.51-.54-.88-.94-1.3l.07-.07c.86-.02,1.57.26,2.36.42.96.48,2.36.37,2.81,1.62.19.7.51,1.35,1,1.9l.05-.03c.1-.18.1-.48,0-.65-.11-.88-.87-1.09-1.28-1.83l.05-.07c.42.12.86.23,1.28.4,1.4.39,2.38,1.76,2.55,3.18,0,1.13-.21,2.06-.65,3.01-.05.14-.3.3-.14.42.19-.14.23-.37.33-.53.58-.97.87-2.3.58-3.54-.02-.23-.28-.4-.16-.63.09.1.19.12.3.16.1-.07.26-.07.33-.19.02-.1.09-.23,0-.32-.11-.16-.33-.16-.51-.12-.09.11-.19.25-.21.39-.17-.3-.35-.69-.63-.93l.03-.05c.79.26,1.5.65,2.31.86.17.11.37.19.61.19.68.26,1.43.37,2.15.55.52-.05.96.19,1.49.07v-.03l-.02.02c-.19-.25-.61-.02-.84-.19-1.2-.12-2.36-.44-3.44-.86.02-.05.09-.04.14-.04.17-.09.3-.25.28-.44-.09-.12-.23-.19-.4-.19-.1.05-.24.17-.26.3.02.14.14.3.26.33-.03.04-.1.02-.16.02-.54-.25-1.07-.48-1.59-.72-.19-.03-.35-.19-.54-.23-.4-.19-.8-.39-1.21-.54-1.12-.58-2.36-.9-3.55-1.32-.26-.07-.51-.14-.75-.21-.44-.12-.87-.23-1.31-.35-1.48-.37-3.48-.4-4.77.4-.21-.07-.33.26-.44.05.37-.97,1.43-1.28,2.39-1.32,7.01-.07,13.57-.12,20.47-.23.8,0,1.59-.28,2.01-1,.3-.42.35-1.14.12-1.62"></path> 

<path d="m75.18,33.7c0,.05.11.07.07.16-.61.55-1.47.7-2.34.74-.07.02-.14.07-.23.05-.05-.03-.07-.09-.04-.12.63-.69,1.59-1.04,2.53-.83"></path> 

<path d="m72.37,33.98c.07.25-.09.39-.28.47-.19-.02-.3-.14-.38-.28-.05-.14.07-.21.12-.3.14-.14.47-.14.54.11"></path> 

<path d="m39.17,34.01c.03.12.02.28-.09.37-.07.09-.23.11-.32.09-.12-.02-.19-.16-.23-.26,0-.16.09-.25.23-.34.14,0,.3-.02.4.14"></path> 

<path d="m36.04,35.16v.12c-.42.09-.82-.02-1.14-.26-.24-.35-.52-.7-.93-.88,0-.05-.11-.12,0-.16.87,0,1.4.7,2.06,1.18"></path> 
<path d="m77.84,34c-.4.6-.75,1.34-1.47,1.6-.12,0-.23.17-.33.05.28-.67.87-1.39,1.55-1.67.07,0,.17-.02.24.02"></path> 
<path d="m40.18,34.21c.02.19-.12.23-.24.33-.14.02-.21-.09-.3-.19-.07-.18.09-.25.17-.33.14-.03.3.07.37.19"></path> 
<path d="m80.04,34.31c-.16.23-.09.56-.24.81-.35.4-.65.86-1.21.95-.09-.17.12-.35.21-.51.24-.53.59-1.13,1.15-1.35l.09.11Z"></path> 
<path d="m30.62,34.47c.05.12.1.25,0,.39-.11.09-.26.12-.4.07-.16-.09-.21-.28-.14-.42.1-.16.42-.25.54-.04"></path> 
<path d="m29.63,34.68c.02.09.07.16.05.25-.05.09-.14.19-.24.21-.19.04-.31-.07-.4-.23-.02-.16.03-.3.17-.37.16-.07.33.02.42.14"></path> 
<path d="m31.69,34.79c.04.14.07.39-.14.42-.24.1-.38-.07-.52-.21,0-.16.09-.28.21-.35.17-.02.33,0,.45.14"></path> 
<path d="m34.55,35.02c-.02.12.02.3-.12.34-.09.09-.24.05-.33.03-.03-.11-.23-.19-.12-.32.07-.09.14-.14.24-.19.11.05.26,0,.33.14"></path> 
<path d="m81.72,35.14c-.05.12-.12.28-.26.28-.16-.02-.31-.04-.4-.19-.07-.19.09-.3.23-.35.17,0,.4.07.44.26"></path> 
<path d="m78.52,35.23c.02.14-.14.25-.21.3-.24.11-.45-.07-.54-.26.04-.16.16-.26.3-.32.23-.02.35.11.45.28"></path> 
<path d="m80.69,35.19c0,.12-.07.25-.16.3-.14.05-.31.03-.42-.07-.16-.14-.04-.26.07-.37.16-.09.45-.07.51.14"></path> 
<path d="m30.17,35.49c.03.19-.03.37-.21.44-.16,0-.33-.09-.38-.25-.02-.16.03-.32.17-.37.17-.05.31.05.42.18"></path> 
<path d="m77.65,35.68c.05.19-.05.37-.25.46-.14.04-.23-.04-.33-.12-.07-.09-.16-.28-.02-.37.14-.26.49-.16.59.04"></path> 
<path d="m39.57,35.88c.07.19-.14.23-.19.33-.07.04-.21.05-.26-.02-.09-.11-.19-.21-.14-.37.09-.07.12-.14.23-.18.19-.05.26.12.37.23"></path> 
<path d="m81.4,36c.03.12-.07.18-.09.26-.1.09-.28.11-.4.07-.16-.09-.16-.23-.16-.39.1-.07.12-.16.24-.19.16,0,.35.07.4.25"></path> 
<path d="m80.32,36.05c.07.21-.12.32-.26.37-.07.02-.17-.03-.19.07.45.23.73.6,1.08.93v.14c-.63-.02-1.28-.18-1.73-.67-.12-.09-.33-.09-.47-.21.23-.23.65-.14.96-.16.23-.25-.26-.42.03-.63.11-.02.17-.12.32-.09.12.05.19.14.26.25"></path> 
<path d="m73.18,36.07c.04.09-.07.19-.09.28-.11.11-.26.12-.38.07-.09-.12-.23-.23-.17-.4.14-.26.59-.21.65.05"></path> 
<path d="m34.12,36.69c-.05.16-.12.26-.3.28-.14-.02-.26-.07-.31-.21-.02-.12.07-.19.09-.28.19-.16.54-.05.52.21"></path> 
<path d="m35.53,36.46c0,.25-.26.39-.35.63-.26.58-.73,1.11-1.4,1.16-.07-.16.23-.35.3-.51.28-.6.84-.92,1.34-1.29h.11Z"></path> 
<path d="m72.76,36.7c.02.19-.16.33-.3.41-.16.05-.28-.07-.37-.14-.14-.14-.05-.28.02-.42.21-.21.51-.04.65.16"></path> 
<path d="m73.84,36.83c-.02.19-.14.33-.31.39-.03-.05-.12-.02-.17-.03-.12-.07-.23-.18-.23-.32.09-.09.12-.23.24-.25.16-.02.42,0,.47.21"></path> 
<path d="m38.24,36.81c.02.19-.12.3-.26.37-.16.02-.26-.09-.33-.21-.03-.16.12-.26.21-.35.21-.07.26.09.38.19"></path> 
<path d="m39.44,36.88c-.05.16-.16.26-.33.3-.12-.04-.26-.07-.31-.21-.02-.18.12-.26.24-.35.17,0,.37.07.4.26"></path> 
<path d="m77.6,38.11c.09.07.24.16.21.28-.28.12-.51-.19-.77-.25-.42-.42-.73-.88-.91-1.41.16-.16.33.04.47.09.4.34.79.77,1,1.29"></path> 
<path d="m78.24,36.88c.05.12.03.26-.03.39-.11.18-.33.14-.49.11-.09-.11-.24-.25-.14-.4.05-.14.21-.18.33-.23.12-.02.21.09.33.14"></path> 
<path d="m41.05,37.34c.02.14.05.35-.12.44-.16.04-.37-.02-.42-.21-.09-.21.1-.25.21-.35.14-.03.23.03.33.12"></path> 
<path d="m73.79,38.48c.24.35.42.79.45,1.25-.05.12.09.25-.02.33h-.07c-.79-.56-.96-1.35-1.26-2.15-.07-.03-.09-.11-.07-.18.17-.16.3.16.47.21l.49.53Z"></path> 
<path d="m43.32,37.88s0,.03.02.03c-.7.49-1.68.79-2.48.32-.02-.05.02-.14.09-.16.51-.16,1-.4,1.54-.33l.84.14Z"></path> 
<path d="m39.34,37.97c-.59.37-1.14,1.09-1.87,1.27-.14.05-.23.25-.4.14.31-.95,1.34-1.46,2.27-1.55v.14Z"></path> 
<path d="m72.76,38.76c.05.14,0,.34-.14.37-.09.09-.26.09-.33,0-.16-.07-.16-.23-.16-.35.05-.12.17-.14.26-.19.16.04.28.04.37.18"></path> 
<path d="m71.31,38.85c-.11.25-.4.39-.63.46-.59.21-1.14-.07-1.66-.21.02-.14.19-.09.28-.18.58-.12,1.17-.25,1.78-.09.05-.03.17-.05.23.02"></path> 
<path d="m39.34,39.36c-.05.07-.07.23-.21.28-.12.05-.24,0-.35-.07-.03-.11-.16-.19-.07-.32.03-.12.17-.16.28-.19.18.02.31.12.35.3"></path> 
<path d="m40.37,39.52c-.05.11-.1.26-.24.33-.14.04-.25-.03-.35-.12-.05-.11-.1-.23-.05-.35.04-.09.16-.11.24-.16.17-.02.33.16.4.3"></path> 
<path d="m72.43,39.7c.02.14-.05.23-.12.33-.09.12-.26.14-.38.07-.12-.02-.16-.16-.21-.25-.1-.14.07-.23.12-.35.19-.16.51-.07.59.19"></path> 
<path d="m73.19,39.66c.02.09.07.18.04.25-.11.09-.18.32-.39.23-.1.04-.16-.11-.21-.14-.07-.18-.02-.44.21-.48.16-.05.26.09.35.14"></path> 
<path d="m39.74,40.17c.03.19-.04.37-.18.48-.19.03-.44.03-.51-.19-.02-.18,0-.4.21-.51.17-.02.38.02.47.23"></path> 
<path d="m40.74,40.1c-.03.49-.14,1.09-.63,1.37-.28.05-.56.32-.84.14v-.09c.37-.53,1.03-.93,1.47-1.42"></path> 
<path d="m69.68,40.5c.07.11-.05.19-.11.28-.1.12-.3.07-.42.02-.12-.05-.14-.23-.09-.35.04-.11.14-.16.23-.19.16-.02.3.12.38.25"></path> 
<path d="m42.48,41.32c.24.4.11.95.24,1.39-.3.03-.42-.3-.61-.48-.38-.53-.33-1.23-.51-1.85.03-.05.09-.05.12-.03.26.18.45.51.66.74-.03.12.11.12.09.23"></path> 
<path d="m70.56,40.65c0,.14-.16.18-.24.26-.12-.02-.23-.07-.33-.16-.05-.18.09-.23.17-.32.18-.07.35.02.4.21"></path> 
<path d="m72.64,42.21c0,.05-.02.16-.1.12h-.07c-.51-.46-1.01-.97-.94-1.67l.11-.02c.47.4,1,.84,1.01,1.57"></path> 
<path d="m71.32,41.65c.02.14-.07.25-.16.33-.19.05-.49.03-.52-.23-.02-.18.17-.26.26-.35.21-.05.35.09.42.25"></path> 
<path d="m70.17,42.02c-.24.65-.91.98-1.36,1.48-.09-.05-.05-.19-.04-.26.17-.67.7-1.32,1.35-1.58.28.03,0,.23.05.37"></path> 
<path d="m71.48,42.55c0,.16-.16.23-.25.32-.14-.02-.28-.05-.38-.19-.02-.18.12-.23.23-.32.17-.03.33.05.4.19"></path> 
<path d="m58.51,10.74h-.19c-.51,0-.08.61.2.61.34,0,.36-.61,0-.61m-1.57.61c.51,0,.03-.61-.24-.61h-.51c-.51,0-.03.61.25.61h.5Zm-2.12,0c.51,0,.03-.61-.25-.61h-.51c-.51,0-.03.61.24.61h.51Zm3.66-.75c.24,0,.43.2.43.44s-.19.43-.43.43h-5.18c-.24,0-.43-.19-.43-.43s.19-.44.43-.44h5.18Z"></path> 
<path d="m58.52,18.63c0,.23.31.08.53.08s.53.15.53-.08c0-.32-.31-.21-.53-.21s-.53-.11-.53.21m.97.54c.22,0,.24-.31.24-.57,0-.6-.48,0-.72-.57-.18.48-.67.03-.67.55,0,.35,0,.59.35.59h.79Zm-1.46-2.63l.99.38.97-.38-.39,1.46.77-.16-.26.88.26.85-.68-.19.3,1.57-.97-.38-.99.38.4-1.57-.79.22.21-.88-.21-.85.75.12-.37-1.46Z"></path> <polygon points="55.71 18.69 55.71 18.51 55.55 18.47 55.68 18.34 55.6 18.19 55.77 18.21 55.87 18.03 55.97 18.21 56.14 18.19 56.06 18.34 56.19 18.47 56.03 18.51 56.03 18.69 55.87 18.57 55.71 18.69"></polygon> <polygon points="54.94 19.68 54.94 19.49 54.78 19.46 54.91 19.33 54.83 19.18 55 19.2 55.1 19.02 55.2 19.19 55.37 19.18 55.29 19.33 55.42 19.46 55.26 19.49 55.26 19.68 55.1 19.56 54.94 19.68"></polygon> <polygon points="56.25 19.55 56.25 19.37 56.08 19.34 56.21 19.2 56.13 19.05 56.3 19.07 56.4 18.89 56.51 19.07 56.68 19.05 56.6 19.2 56.73 19.34 56.56 19.37 56.56 19.55 56.4 19.44 56.25 19.55"></polygon> <polygon points="56.43 20.02 56.34 20.01 56.38 20.09 56.31 20.17 56.4 20.19 56.4 20.29 56.49 20.23 56.58 20.29 56.58 20.19 56.67 20.17 56.6 20.09 56.64 20.01 56.55 20.02 56.49 19.92 56.43 20.02"></polygon> <polygon points="55.19 21.14 55.19 20.82 54.91 20.77 55.13 20.53 54.99 20.28 55.28 20.31 55.46 20 55.63 20.31 55.93 20.28 55.79 20.53 56.01 20.77 55.73 20.82 55.73 21.14 55.46 20.94 55.19 21.14"></polygon> <polygon points="55.81 4.54 55.19 6.05 53.63 5.59 54.43 7.02 53.1 7.96 54.7 8.23 54.6 9.86 55.81 8.77 57.01 9.86 56.92 8.23 58.52 7.96 57.19 7.02 57.98 5.6 56.42 6.05 55.81 4.54"></polygon> 
<path d="m50.17,38.47c-.18.07-.26.12-.21.31l.22.93c.04.17.05.44-.06.61-.14.2-.42.33-.63.38-.15.04-.48.1-.75-.02-.17-.08-.29-.15-.36-.47l-.23-.97c-.06-.25-.15-.23-.35-.2l-.02-.07,1.17-.28.02.07c-.23.06-.33.09-.27.35l.23.97c.04.17.13.57.63.45.61-.15.51-.59.47-.78l-.21-.89c-.04-.18-.11-.27-.41-.21l-.02-.07.76-.18.02.07Z"></path> 
<path d="m51.91,38.67c-.11-.19-.39-.48-.8-.39-.18.04-.35.17-.31.36.03.16.12.21.44.26l.56.1c.13.02.43.13.5.45.06.26-.09.66-.73.8-.33.07-.51.01-.62.03-.07.02-.08.07-.08.12l-.1.02-.16-.72.1-.02c.13.28.41.56.85.47.42-.09.37-.39.36-.42-.04-.19-.22-.23-.47-.27l-.25-.04c-.65-.11-.7-.36-.73-.49-.04-.18-.02-.6.64-.75.28-.06.46,0,.56-.02.08-.02.09-.07.09-.12l.1-.02.14.63-.1.02Z"></path> 
<path d="m54.21,39.82l-1.27.12v-.07c.25-.04.33-.06.31-.31l-.15-1.57c-.25.04-.61.09-.64.57h-.1s-.05-.59-.05-.59l2.13-.2.06.6h-.1c-.12-.46-.48-.44-.73-.43l.15,1.57c.03.25.11.25.37.24v.08Z"></path> 
<path d="m55.63,38.76c.47,0,.65-.06.66-.44,0-.3-.14-.43-.42-.44-.2,0-.2.03-.22.12v.76Zm1.54,1.06l-.73-.02-.72-.95h-.1s-.01.59-.01.59c0,.24.07.25.31.28v.07s-1.2-.02-1.2-.02v-.07c.24-.02.31-.03.32-.27l.03-1.32c0-.26-.11-.27-.31-.28v-.07s1.15.02,1.15.02c.25,0,1,.04.99.55,0,.37-.38.45-.57.5l.7.87c.05.06.1.06.14.06v.08Z"></path> 
<path d="m58.52,39.28l-.27-.77-.42.68.69.09Zm.99.83l-1.15-.14v-.07c.23.01.29.02.31-.08,0-.08-.08-.31-.11-.41l-.8-.1c-.13.2-.2.32-.2.36-.01.11.15.14.27.16v.07s-.73-.09-.73-.09v-.08c.2,0,.27-.09.4-.3l.99-1.53h.1s.59,1.67.59,1.67c.12.34.16.45.33.46v.07Z"></path> 
<path d="m61.59,40.54l-2.03-.37v-.07c.21.02.32.03.35-.15l.26-1.42c.04-.19-.11-.23-.26-.26v-.07s1.24.23,1.24.23v.07c-.26-.04-.37-.05-.42.21l-.25,1.39c-.03.14.05.18.28.22.53.1.77-.11.99-.41l.1.02-.26.64Z"></path> 
<path d="m62.93,40.84l-1.22-.26.02-.07c.19.02.33.04.37-.14l.29-1.42c.04-.19-.12-.23-.28-.28v-.07s1.23.26,1.23.26v.07c-.18-.03-.35-.06-.39.14l-.29,1.42c-.04.19.1.23.29.28v.07Z"></path> 
<path d="m64.4,40.34l-.28-.76-.41.69.69.07Zm1.01.81l-1.15-.12v-.08c.23,0,.29.01.3-.09,0-.08-.08-.31-.12-.41l-.8-.08c-.12.2-.19.32-.2.37-.01.11.16.14.28.16v.07s-.73-.07-.73-.07v-.07c.2,0,.26-.1.39-.31l.95-1.55h.1s.63,1.66.63,1.66c.13.34.17.44.34.45v.07Z"></path> 
<path d="m55.68,17.17c-.21,0-.49.14-.49-.1,0-.35.24-.27.45-.27s.54-.08.54.27c0,.25-.28.1-.49.1m.62-.14c0-.72-.4-.05-.63-.66-.16.52-.65.08-.65.64,0,.21.06.34.16.4v.21c0,.06.04.1.1.1h.76c.05,0,.1-.04.1-.1v-.23c.09-.08.16-.2.16-.37"></path> 
<path d="m62.55,25.85c.18,0,.33-.13.33-.29s-.15-.29-.33-.29-.33.13-.33.29.15.29.33.29"></path> 
<path d="m61,15.2s-.15.26-.15.31c0,.1.07.17.16.17s.16-.08.16-.17c0,0-.16-.31-.16-.31"></path> 
<path d="m50.45,15.2s-.15.26-.15.31c0,.1.07.17.16.17s.16-.08.16-.17c0,0-.16-.31-.16-.31"></path> 
<path d="m53.09,15.2s-.15.26-.15.31c0,.1.07.17.16.17s.16-.08.16-.17c0,0-.16-.31-.16-.31"></path> 
<path d="m55.73,15.2s-.15.26-.15.31c0,.1.07.17.16.17s.16-.08.16-.17c0,0-.16-.31-.16-.31"></path> 
<path d="m58.36,15.2s-.15.26-.15.31c0,.1.07.17.16.17s.16-.08.16-.17c0,0-.16-.31-.16-.31"></path> 
<path d="m50.46,18.83s.15.26.15.31c0,.1-.07.17-.16.17s-.16-.08-.16-.17c0,0,.16-.31.16-.31"></path> 
<path d="m50.46,22.35s.15.26.15.31c0,.1-.07.17-.16.17s-.16-.08-.16-.17c0,0,.16-.31.16-.31"></path> 
<path d="m50.88,25.13s.15.26.15.31c0,.09-.07.17-.16.17s-.16-.08-.16-.17c0,0,.16-.31.16-.31"></path> 
<path d="m53.09,26.61s.15.26.15.31c0,.09-.07.17-.16.17s-.16-.08-.16-.17c0,0,.16-.31.16-.31"></path> 
<path d="m61.13,18.83s-.15.26-.15.31c0,.1.07.17.16.17s.16-.08.16-.17c0,0-.16-.31-.16-.31"></path> 
<path d="m61.13,22.35s-.15.26-.15.31c0,.1.07.17.16.17s.16-.08.16-.17c0,0-.16-.31-.16-.31"></path> 
<path d="m60.71,25.13s-.15.26-.15.31c0,.09.07.17.16.17s.16-.08.16-.17c0,0-.16-.31-.16-.31"></path> 
<path d="m58.5,26.61s-.15.26-.15.31c0,.09.07.17.16.17s.16-.08.16-.17c0,0-.16-.31-.16-.31"></path> 
<path d="m55.81,28.18s-.15.26-.15.31c0,.09.07.17.16.17s.16-.08.16-.17c0,0-.16-.31-.16-.31"></path> 
<path d="m60.1,22.93c.03.05.12.07.22.03l.1-.28s-.12-.13-.19-.11c-.28.07-.58.1-.75.37,0,.18.13.35.27.43.1-.03.12.07.18.12.02.08-.03.15-.12.15-.2-.2-.55.07-.7-.18.07-.25.2-.53-.02-.77.02-.05.1-.1.05-.15-.08-.23-.33-.05-.48-.05-.25-.03-.45.1-.6.3.02.08.05.17.13.25.07-.02.1,0,.12.07l-.17.1c.05.05.05.12.07.18-.12.05-.23-.12-.28-.2,0-.13.02-.37-.17-.4-.03,0-.14.05-.14.05-.04.05-.07.15-.07.27s.06.3.06.3c0,0,.51.38.63.61-.15.3-.15.72-.5.89-.1.07-.1.17-.1.27l.08.07c.22-.12.63-.15.6-.52.08-.15.17-.32.31-.43.17-.03.32.05.38.18-.05.25-.22.42-.45.5-.03.03-.02.08-.02.13.07.12.25.07.35.05.28-.18.4-.52.65-.62.03.17-.33.22-.1.38.15-.03.35.02.45-.18-.12-.28.4-.42.08-.67,0-.25.26-.35.25-.62-.1-.27-.41-.27-.5-.52.1-.07.25-.05.35,0"></path> 
<path d="m47.98,25.97c.18,0,.33-.13.33-.29s-.15-.29-.33-.29-.33.13-.33.29.15.29.33.29"></path> 
<path d="m30.87,35.97c.18,0,.32-.14.32-.31s-.14-.31-.32-.31-.32.14-.32.31.15.31.32.31"></path> 
<path d="m61.53,24.22c-.06.7-.3,1.29-.79,1.62l-4.59,2.92h-.02c-.1.08-.22.13-.35.13s-.26-.05-.36-.13l-4.58-2.91c-.49-.33-.73-.92-.79-1.62v-9.1h11.49v9.1Zm.34-9.43h0s-12.17,0-12.17,0h0s0,0,0,0v9.3c0,.95.41,1.78.97,2.03l4.68,2.97c.1.12.26.19.43.19.15,0,.28-.06.38-.15l4.75-3.02c.56-.26.96-1.08.96-2.03v-9.3s0,0,0,0Z"></path> 
<path d="m57.43,28.35l.15-.07c-.06.02-.11.05-.15.07"></path> 
<path d="m47.09,40.49l-.44-.68-.25.76.69-.08Zm1.16.58l-1.15.13v-.07c.21-.04.27-.05.26-.15,0-.08-.15-.29-.21-.38l-.8.09c-.07.23-.12.35-.11.4.01.11.18.1.31.09v.07s-.71.09-.71.09v-.07c.18-.05.22-.15.3-.39l.6-1.72h.1s.97,1.46.97,1.46c.2.3.26.39.43.37v.07Z"></path> 
<path d="m67.95,37.37c-.16.32-.4.55-.75.6.02-.42.4-.72.26-1.2-.23-.34-.68-.44-1.1-.35-.16.11-.09.28-.14.44l-.07.58c-.35,0-.37-.32-.47-.56.02-.37.18-.74.54-.92.28-.14.73-.12,1.01.04.23.05.49.16.58.37.26.25.19.69.14,1m-1.41.18c.19-.19-.05-1.3.49-.58,0,.14.02.35-.12.46-.09.07-.23.21-.37.12m.19.44c.02.28-.25.21-.39.32h-.42c-.09-.14-.05-.35-.05-.49.28.05.59.05.86.18m.49,2.15c-.14.18-.02.46-.19.62,0,.32-.26.47-.49.6-2.08.46-4.12-.25-6.13-.6-2.81-.62-6.1-.79-8.96-.14-1.35.25-2.66.56-3.95.93-.8.11-1.68.23-2.45-.02-.63-.3-.37-1.11-.56-1.67.04-.44-.12-.79-.14-1.21-.05-.14-.09-.32-.07-.46.26.03.52.23.8.3,1.47.28,2.78-.19,4.14-.44,1.31-.28,2.66-.51,4.04-.62,1.57-.02,3.18-.1,4.68.16.49.02.91.14,1.38.18.98.12,1.89.39,2.88.46.16.05.35.05.52.09,1.57.25,3.34.69,4.84,0,0,.63-.26,1.21-.35,1.83m-8.87,1.28c.09.25.24.47.16.77-.17.33-.52.33-.84.4-.16.02-.28-.04-.4-.12.02-.07-.02-.12-.07-.17.05-.23-.4-.46-.09-.65.28-.26.94-.86,1.24-.23m.38.07c.21.05.23.28.24.46-.02.39-.23.72-.59.86-.19.11-.49.14-.68.07.42-.02.87-.18,1.05-.6l-.02-.79Zm.45,2.34s-.03.05-.03.07c-.51.02-.84-.28-1.22-.55l-.02-.09c.47.04.86.34,1.28.56m-.65,1.62c-.02.05-.11.05-.14.02-.52-.67-.77-1.37-1.1-2.11l.07-.02c.42.69.75,1.44,1.17,2.11m-.87-.42l-.09.04c-.09-.07-.05-.26-.03-.37.1.09.19.21.12.33m-.49-1.06c.02.18.19.25.09.41-.03-.07-.14-.23-.09-.41m-.1-1.16h.03v.05h-.03v-.05Zm-1.01,2.59c-.33.02-.84.21-1.15-.07.02-.14-.14-.21-.12-.35.28-.1.52.23.79-.02.4.02.82-.05,1.22.04.19.05.49-.32.52.05-.14.58-.84.18-1.26.35m-.77-2.09l.09-.14c-.14.42-.35.86-.58,1.27-.11-.42.33-.76.49-1.13m.49-.34c.23-.25.44.14.52.34.26.39.94.74.68,1.27-.33.3-.86.02-1.22.25-.19-.02-.53.04-.63-.16.19-.56.37-1.2.65-1.69m-.05-.67h-.07l.11-.1c.05.03-.02.07-.04.1m.4.04c.07-.11.16-.26.28-.26,0,.02.02.03.04.05-.11.09-.19.17-.31.21m.25.26s.12-.04.16,0h-.16Zm.47.55s.02.09-.03.12l-.4-.32c.19-.03.33.05.44.19m-.03-1.02h-.02v-.05h.02v.05Zm.73-1.14c-.21.07-.37.32-.58.37.11-.19.37-.39.58-.37m-.87-.23c-.04-.16.16-.04.23-.11l.54.03c-.28-.03-.63.62-.77.07m-1.28.49c.09-.25.11-.46.26-.65.17,0,.33,0,.47.07.04.35.47.83,0,1.13-.16.07-.39.23-.56.07-.23-.19-.26-.37-.17-.62m-.26,1.09c-.02-.07.03-.16.05-.25.09-.09.17.07.21.12-.05.09-.16.14-.26.12m-.02-.81h-.02v-.19h.02v.19Zm-.21-.53c-.23-.05-.35-.32-.59-.32.21-.07.42-.05.66-.02.09.12-.05.23-.07.33m-.19,1.42c.05-.23.16-.53.28-.74-.02.23-.12.55-.28.74m-.38,0c-.3-.03-.58-.12-.84-.21-.18-.18,0-.37,0-.56.24-.39.94-.58,1.28-.23-.05.39-.19.72-.44,1m.16.48v.07h-.03v-.09h.07s-.05,0-.07.02h.03Zm-.44,1.02c-.25.56-.52,1.11-.86,1.65-.03.09-.17.11-.28.12,0-.25.24-.44.35-.65.37-.48.47-.99.89-1.44.1.1-.1.17-.1.32m-1.66-.18c.42-.18.86-.55,1.33-.39-.33.26-.87.37-1.33.39m.63-1.21c-.09-.62.16-1.14.56-1.58.24-.05.52-.11.75.04-.45.12-1.03.23-1.14.81.02.23-.05.35.05.55.19.33.63.19.87.46,0,.09-.07.19-.16.21-.3-.18-.66-.25-.94-.47m-8.19-5.65c.05-.14,0-.35.19-.39.12-.04.31-.04.33.11-.02.21-.03.42-.09.62-.24.02-.37-.12-.44-.33m.05.59c.26.19.63.11.94.16.05.19.05.44-.09.6-.3-.07-.68-.04-.84-.32.04-.12-.05-.3-.02-.44m-.82-.5c.05-.32.12-.65.42-.88.42-.23,1-.17,1.38.05.12.07.21.18.28.33.09.3-.05.62-.26.79h-.17c0-.28,0-.56.11-.79-.02-.21-.19-.23-.33-.32-.3-.09-.56.05-.79.18-.17.21-.33.47-.23.77.12.19.02.46.09.67l-.05.07c-.21-.23-.49-.48-.44-.88m16.39,7.48c.42.19,1.26.37,1.86.44-.05.24-.48.01-.43.35-.54-.21-1.17-.32-1.57-.74.04-.02.07-.07.14-.05m-10.91.28l-.24-.23c.12-.16.38-.07.58-.18.45-.14.98-.31,1.49-.21-.52.42-1.21.47-1.82.62m18.87-8.02c-.21-.55-.65-.91-1.19-1.09-.56-.12-1.15-.04-1.52.39-.63.51-.19,1.36-.17,2.04,0,.14.02.25-.12.32-2.53-.23-4.89-.86-7.41-1.13-.58-.1-1.16-.07-1.71-.19l-.7-.07c-2.18.07-4.37.19-6.41.72-.44.14-.93.18-1.36.33-.31-.05-.58.18-.87.09l-.58.13c-.05,0-.12,0-.19-.01-.28-.72.56-1.16.3-1.86-.23-.41-.68-.79-1.21-.72-.59-.07-1.12.26-1.4.72-.4.88.11,1.79.26,2.66-.03.28.28.6,0,.83-.56-.39-1.29-.6-1.97-.4-.21.11-.59-.03-.7.21.75.4,1.71.35,2.55.32.11-.04.18-.05.26.02.07.46-.09,1.07.19,1.48.31.42.84.53,1.35.58,1.61-.05,3.04-.53,4.51-.9.23-.02.4-.14.65-.14.79-.18,1.64-.32,2.48-.34-.37.48-.58,1-.74,1.58-.21.47.37.54.54.81-.54.16-.93.53-1.43.74-1.12-.04-2.06.39-3.11.51-.02.23.37.16.4.39-.05.16-.21.18-.33.26-.02.11,0,.12.11.14.11-.12.33-.03.44-.16.35,0,.65-.1.98-.12.3-.12.63-.14.89-.35.37-.1.59-.35.96-.46.52,0,1-.18,1.48-.21v.11c-.4.65-.82,1.32-1.24,1.94-.07.12.02.24.12.28.25.07.49,0,.68-.1.37-.63.7-1.23,1-1.88.12-.6.56-.92,1-1.32.07-.03.17-.14.24-.03-.35.4-.58.79-.84,1.23-.14.49-.17,1.13.26,1.53.21.18.52.12.8.14.68-.35,1.55.21,2.08-.46.31-.05.37.32.54.49.3.09.61.39.91.18-.02-.19-.23-.37-.33-.55-.21-.37-.47-.67-.66-1-.09-.25-.25-.41-.28-.65.32.11.59.32.94.37.3.12.66.1.94.28.23.3.58.48.87.67.44.21.93.25,1.38.42.17.02.44.16.56,0-.07-.09-.16-.14-.26-.19-.05-.23.31-.11.44-.28-.04-.08-.12-.12-.2-.13-.25-.13-.87-.18-1.04-.27-.21-.03-.4-.12-.61-.19-1.05,0-1.62-.95-2.46-1.3.19-.17.49-.32.61-.58.16-.25.21-.65.05-.93-.16-.54-.86-.48-1.26-.77l.05-.05c.68-.04,1.28.12,1.89.25,1.68.23,3.23.86,4.98.9.96,0,2.17.05,2.64-.88.09-.55.19-1.09.28-1.64.21-.88.79-1.69.7-2.66"></path> 
<path d="m4.54,78.5l1.1-.23c.24-.06.44-.13.6-.19.16-.06.29-.18.39-.34.1-.16.17-.38.21-.66.04-.28.06-.67.06-1.17v-15.47c0-.5-.02-.89-.06-1.17-.04-.28-.11-.5-.21-.67s-.23-.28-.39-.34c-.16-.06-.36-.13-.6-.19l-1.1-.23v-.91h10.38c2.96,0,5.15.42,6.55,1.26,1.41.84,2.11,2.19,2.11,4.04,0,1.47-.51,2.6-1.52,3.4-1.02.8-2.49,1.35-4.41,1.65v.16c2.27.26,4.01.82,5.21,1.67,1.2.86,1.8,2.17,1.8,3.95,0,2.08-.74,3.66-2.22,4.73-1.48,1.07-3.67,1.61-6.57,1.61H4.54v-.91Zm9.89-11.55c1.3,0,2.2-.32,2.71-.96.51-.64.76-1.7.76-3.2,0-.89-.06-1.62-.19-2.19-.13-.57-.34-1.03-.62-1.36-.28-.33-.63-.57-1.04-.7-.41-.13-.9-.19-1.46-.19-.39,0-.75.02-1.09.06-.34.04-.59.09-.76.13v8.4h1.69Zm.75,11.03c.54,0,1.02-.08,1.44-.23s.77-.42,1.05-.8c.28-.38.5-.88.65-1.5.15-.62.23-1.41.23-2.37s-.07-1.68-.21-2.3c-.14-.62-.37-1.12-.68-1.49-.31-.37-.72-.64-1.22-.8-.5-.16-1.09-.25-1.78-.25h-1.91v7.61c0,.46.03.83.08,1.11.05.28.17.5.36.65.18.15.43.25.75.29.31.04.73.07,1.25.07Z"></path> 
<path d="m31.51,79.8c-1.3,0-2.33-.36-3.1-1.09s-1.15-1.8-1.15-3.23v-9.28c0-.35-.01-.62-.03-.83s-.06-.37-.13-.5-.16-.25-.29-.36-.31-.23-.55-.36l-1.14-.65v-.68l6.94-.71.39.29v11.81c0,.97.18,1.66.55,2.06.37.4.92.6,1.65.6.58,0,1.14-.08,1.67-.23.53-.15.99-.29,1.38-.42v-10.02c0-.35-.01-.62-.03-.83-.02-.21-.06-.38-.13-.52-.06-.14-.17-.26-.31-.36-.14-.1-.33-.21-.57-.34l-1.1-.65v-.68l6.91-.71.39.29v13.1c0,.39.01.71.03.96.02.25.07.44.15.58.08.14.18.26.32.36.14.1.33.19.57.28l.94.39v.78l-6.71.94-.36-.26.06-2.17h-.16c-.87.63-1.8,1.19-2.81,1.69s-2.14.75-3.39.75Z"></path> 
<path d="m51.66,79.8c-.8,0-1.58-.15-2.35-.45-.77-.3-1.45-.78-2.04-1.44-.59-.66-1.07-1.51-1.43-2.56-.36-1.05-.54-2.31-.54-3.78,0-1.69.25-3.12.76-4.31s1.19-2.17,2.04-2.94,1.85-1.32,2.98-1.67c1.13-.35,2.34-.52,3.62-.52.43,0,.86.03,1.3.1.43.07.82.15,1.17.26-.02-.24-.03-.49-.03-.75-.02-.24-.03-.49-.03-.76v-1.9c0-.39-.01-.69-.03-.91-.02-.22-.07-.39-.15-.54-.08-.14-.18-.25-.31-.34-.13-.09-.3-.18-.52-.29l-1.33-.71v-.75l7.27-.65.32.26c-.02.3-.04.65-.06,1.04-.02.35-.03.75-.03,1.22v18.12c0,.39.01.71.03.96.02.25.07.44.15.58.07.14.18.26.32.36.14.1.33.19.57.28l.94.39v.78l-6.71.94-.36-.26.06-1.85h-.13c-.69.61-1.49,1.11-2.4,1.51-.91.4-1.94.6-3.08.6Zm2.72-2.56c.67,0,1.23-.09,1.67-.28.44-.18.79-.33,1.05-.44v-11.74c-.28-.35-.62-.66-1.02-.94-.4-.28-.9-.42-1.51-.42s-1.12.12-1.61.36-.9.63-1.25,1.18-.62,1.28-.81,2.17c-.2.9-.29,2.02-.29,3.36s.08,2.35.24,3.21c.16.87.4,1.56.71,2.08.31.52.7.89,1.17,1.12.46.23,1.01.34,1.64.34Z"></path> 
<path d="m71.2,86.25c-2.42,0-4.25-.33-5.5-.99-1.24-.66-1.87-1.59-1.87-2.81,0-.76.35-1.42,1.05-1.98.7-.56,1.71-1,3.03-1.3v-.13c-.91-.2-1.6-.57-2.08-1.12-.48-.55-.71-1.22-.71-2,0-.45.08-.88.24-1.26.16-.39.36-.74.6-1.05s.51-.6.81-.86c.3-.26.58-.49.84-.68v-.13c-.78-.39-1.41-.94-1.88-1.64-.48-.7-.71-1.54-.71-2.51s.18-1.75.55-2.45c.37-.7.87-1.29,1.51-1.77.64-.47,1.38-.84,2.22-1.09.84-.25,1.74-.37,2.69-.37.78,0,1.49.06,2.12.19.64.13,1.26.32,1.87.58.5-.45,1.06-.84,1.7-1.15s1.3-.47,2-.47c.61,0,1.1.15,1.48.44.38.29.57.73.57,1.31,0,.5-.12.93-.36,1.3-.24.37-.65.55-1.23.55-.5,0-.85-.1-1.07-.31-.22-.21-.41-.49-.58-.86-.15-.3-.39-.45-.71-.45s-.68.1-1.07.29v.1c.63.37,1.16.87,1.61,1.51.44.64.67,1.38.67,2.22,0,.93-.18,1.75-.55,2.45-.37.7-.87,1.29-1.51,1.75s-1.38.82-2.22,1.05c-.84.24-1.74.36-2.69.36-1.23,0-2.35-.18-3.34-.55-.17.15-.33.36-.49.62s-.23.53-.23.81c0,.32.12.59.37.79.25.21.67.31,1.25.31h5.68c.78,0,1.5.07,2.16.21.66.14,1.24.38,1.74.71.5.34.89.78,1.17,1.35s.42,1.26.42,2.11c0,.93-.19,1.81-.58,2.64-.39.83-.98,1.57-1.78,2.21s-1.79,1.14-2.98,1.51c-1.19.37-2.58.55-4.18.55Zm.68-1.3c1.9,0,3.3-.3,4.18-.9.89-.6,1.33-1.43,1.33-2.48,0-.71-.22-1.24-.67-1.6s-1.17-.53-2.19-.53h-5.45c-.3.15-.6.42-.89.82-.29.4-.44.92-.44,1.56,0,.97.31,1.73.94,2.29.63.56,1.69.84,3.18.84Zm.13-13.27c.76,0,1.31-.28,1.65-.83s.52-1.6.52-3.14c0-1.67-.18-2.8-.54-3.4-.36-.6-.9-.9-1.64-.9s-1.31.29-1.65.87-.52,1.63-.52,3.17c0,.83.04,1.52.13,2.07.09.54.22.98.39,1.3s.4.54.68.67c.28.13.6.19.97.19Z"></path> 
<path d="m89.07,79.8c-2.83,0-4.95-.79-6.36-2.37-1.41-1.58-2.11-3.75-2.11-6.52,0-1.41.24-2.65.71-3.75.48-1.09,1.11-2.01,1.91-2.76s1.7-1.31,2.71-1.7c1.01-.39,2.05-.58,3.13-.58s2.13.15,3.03.44c.9.29,1.66.77,2.29,1.42.63.65,1.12,1.5,1.48,2.53.36,1.04.55,2.29.57,3.78h-10.7c.02,1.33.16,2.42.42,3.28.26.86.62,1.54,1.09,2.06s1.03.87,1.69,1.08c.66.2,1.41.3,2.25.3,1.02,0,1.91-.12,2.68-.37.77-.25,1.46-.54,2.09-.86v1.07c-.28.32-.64.66-1.09,1.01-.44.35-.96.67-1.54.96-.58.29-1.23.53-1.95.71-.71.18-1.48.28-2.3.28Zm-.26-16.38c-.41,0-.79.1-1.15.3-.36.2-.68.53-.96.98s-.51,1.03-.68,1.73c-.17.71-.27,1.56-.29,2.56l5.55-.29c0-.96-.04-1.78-.11-2.45-.08-.67-.21-1.22-.39-1.63-.18-.42-.44-.72-.76-.91s-.72-.29-1.2-.29Z"></path> 
<path d="m103.14,79.8c-1.47,0-2.59-.35-3.36-1.04-.77-.7-1.15-1.85-1.15-3.45v-10.88h-2.04v-.78c1.28-.49,2.38-1.19,3.31-2.1s1.62-2,2.08-3.29h1.85v4.31h4.31l-.42,1.85h-3.89v10.54c0,.82.15,1.41.44,1.76s.85.52,1.67.52c.39,0,.8-.03,1.23-.1s.8-.13,1.1-.19v.92c-.19.17-.44.38-.75.61s-.67.44-1.09.64c-.42.2-.91.36-1.46.49-.55.13-1.16.2-1.83.2Z"></path> 
<path d="m4.78,109.08v-1.19c1.82-1.43,3.39-2.71,4.73-3.83s2.45-2.16,3.33-3.12c.89-.96,1.55-1.88,1.97-2.75.42-.88.64-1.78.64-2.71,0-1.37-.42-2.46-1.26-3.28-.84-.81-1.99-1.22-3.44-1.22s-2.71.47-3.61,1.42c-.9.95-1.41,2.21-1.52,3.8l-1.28-.72c.12-1.18.44-2.2.99-3.07.54-.87,1.27-1.55,2.19-2.03.92-.48,2.01-.72,3.26-.72.95,0,1.8.13,2.57.41.76.27,1.41.66,1.94,1.17.53.51.94,1.13,1.23,1.84.29.72.43,1.52.43,2.41,0,1.29-.36,2.56-1.09,3.78-.72,1.23-1.83,2.52-3.32,3.87-1.49,1.35-3.37,2.89-5.65,4.61v.03c.15,0,.35,0,.59-.01.24,0,.48-.01.72-.01h9.35v1.33H4.78Z"></path> 
<path d="m25.63,109.37c-2.18,0-3.9-.85-5.13-2.54-1.24-1.69-1.86-4.13-1.86-7.32s.62-5.63,1.86-7.32c1.24-1.69,2.95-2.54,5.13-2.54s3.89.85,5.12,2.54,1.84,4.13,1.84,7.32-.61,5.63-1.84,7.32-2.93,2.54-5.12,2.54Zm0-1.3c1.18,0,2.17-.32,2.99-.97s1.43-1.61,1.86-2.88c.42-1.28.64-2.84.64-4.7s-.21-3.42-.64-4.7c-.43-1.28-1.04-2.24-1.86-2.89-.81-.65-1.81-.97-2.99-.97s-2.18.32-3,.97c-.82.65-1.45,1.61-1.87,2.89-.43,1.28-.64,2.84-.64,4.7s.21,3.4.64,4.68c.42,1.29,1.05,2.25,1.87,2.9.82.65,1.82.97,3,.97Z"></path> 
<path d="m34.56,109.08v-1.19c1.82-1.43,3.39-2.71,4.73-3.83s2.45-2.16,3.33-3.12c.89-.96,1.55-1.88,1.97-2.75.42-.88.64-1.78.64-2.71,0-1.37-.42-2.46-1.26-3.28-.84-.81-1.99-1.22-3.44-1.22s-2.71.47-3.61,1.42c-.9.95-1.41,2.21-1.52,3.8l-1.28-.72c.12-1.18.44-2.2.99-3.07.54-.87,1.27-1.55,2.19-2.03.92-.48,2.01-.72,3.26-.72.95,0,1.8.13,2.57.41.76.27,1.41.66,1.94,1.17.53.51.94,1.13,1.23,1.84.29.72.44,1.52.44,2.41,0,1.29-.36,2.56-1.09,3.78s-1.83,2.52-3.32,3.87c-1.49,1.35-3.37,2.89-5.65,4.61v.03c.15,0,.35,0,.59-.01.24,0,.48-.01.72-.01h9.35v1.33h-12.79Z"></path> 
<path d="m55.79,109.37c-1.7,0-3.17-.4-4.41-1.2-1.24-.8-2.05-1.89-2.44-3.26l1.42-.75c.19.79.53,1.48,1,2.06.47.58,1.08,1.03,1.83,1.35s1.65.48,2.71.48c.97,0,1.8-.17,2.51-.52.71-.35,1.26-.84,1.65-1.48.4-.64.59-1.39.59-2.26s-.17-1.52-.52-2.06-.85-.95-1.49-1.22c-.65-.27-1.43-.41-2.33-.41-.31,0-.59,0-.85.01-.26,0-.5.03-.71.07v-1.45c.19.02.4.03.62.03h.62c1.41,0,2.46-.34,3.16-1.01.7-.68,1.04-1.65,1.04-2.93s-.38-2.16-1.13-2.83c-.75-.67-1.8-1-3.13-1s-2.35.3-3.17.9c-.82.6-1.41,1.41-1.75,2.44l-1.36-.67c.29-.81.73-1.52,1.33-2.12.6-.6,1.32-1.07,2.17-1.41.85-.34,1.79-.51,2.81-.51,1.24,0,2.28.22,3.13.65s1.5,1.03,1.94,1.78c.45.75.67,1.62.67,2.61,0,.64-.09,1.23-.28,1.77s-.43,1.02-.75,1.44c-.32.42-.7.75-1.15,1-.44.25-.94.43-1.48.52v.03c.64.04,1.21.17,1.71.41.5.23.93.54,1.29.93.36.39.63.84.83,1.36.19.52.29,1.08.29,1.68,0,1.1-.27,2.07-.81,2.9-.54.83-1.29,1.48-2.25,1.96-.96.47-2.06.71-3.32.71Z"></path> 
<path d="m78.87,100.7v1.36h-14.15v-1.36h14.15Z"></path> 
<path d="m81.19,109.08v-1.19c1.82-1.43,3.39-2.71,4.73-3.83s2.45-2.16,3.33-3.12c.89-.96,1.55-1.88,1.97-2.75.42-.88.64-1.78.64-2.71,0-1.37-.42-2.46-1.26-3.28-.84-.81-1.99-1.22-3.44-1.22s-2.71.47-3.61,1.42c-.9.95-1.41,2.21-1.52,3.8l-1.28-.72c.12-1.18.44-2.2.99-3.07.54-.87,1.27-1.55,2.19-2.03s2.01-.72,3.26-.72c.95,0,1.8.13,2.57.41.76.27,1.41.66,1.94,1.17.53.51.94,1.13,1.23,1.84.29.72.43,1.52.43,2.41,0,1.29-.36,2.56-1.09,3.78-.73,1.23-1.83,2.52-3.32,3.87-1.49,1.35-3.37,2.89-5.65,4.61v.03c.15,0,.35,0,.59-.01.24,0,.48-.01.73-.01h9.35v1.33h-12.79Z"></path> 
<path d="m104.5,109.08v-5.45h-9.51v-1.1l9.11-12.58h1.86v12.44h3.68v1.25h-3.68v5.45h-1.45Zm0-6.7v-8.76c0-.39,0-.79.01-1.22,0-.42.02-.84.04-1.25h-.06c-.21.41-.47.84-.77,1.29s-.58.87-.83,1.23l-6.35,8.7h7.95Z"></path></g></svg>