<svg data-lit-media-id="11170" data-lit-media-name="Education" viewBox="0 0 250 250"><g class="lit-svg-primary-fill"><path d="m186.46,39.14l-65.82,17.42-65.83-17.42,65.83-17.41,41.85,11.07,4.05,1.07h-44.06c-1.04,0-1.89.85-1.89,1.89s.85,1.89,1.89,1.89h58.36l5.62,1.49h0Z" fill="#66d3ee"></path> <path d="m158.78,46.56l-.03,9.86c-3.84,3.3-9.39,6.15-16.43,8.17-21.24,6.1-48.02,2.37-59.82-8.33l.03-9.45h1.92l36.71,9.71,37.63-9.96h-.01Z" fill="#66d3ee"></path> <path d="m180.34,80.97c0-2.04,1.65-3.68,3.68-3.68s3.68,1.65,3.68,3.68-2.96,10.5-3.68,10.5-3.68-8.47-3.68-10.5Z" fill="#66d3ee"></path> <path d="m122.48,37.66c-1.04,0-1.89-.85-1.89-1.89s.85-1.89,1.89-1.89h58.87c3.94,0,4.52,2.49,4.54,2.59l.25,1.19h-63.67.01Z" fill="#66d3ee"></path> <path d="m185.91,41.01v35.15c0,1.02-.83,1.86-1.85,1.86h-.09c-1.02,0-1.85-.84-1.85-1.86v-34.14" fill="#66d3ee"></path> <path d="m58.81,99.13s-.37-10.8,10.56-11.04h86.3v100.35h-86.3c-10.93.24-10.56,11.04-10.56,11.04v-100.35Z" fill="#66d3ee"></path> <path d="m176.97,124.33h14.61v78.94h-14.61v-78.94Z" fill="#66d3ee"></path></g> <g class="lit-svg-secondary-fill"><path d="m119.43,103.53h8.73c0,6.38,6.24,5.96,6.24,5.96v12.82s-6.24-.42-6.24,5.96h-25.92c0-6.38-6.24-5.96-6.24-5.96v-12.82s6.24.42,6.24-5.96c0,0,17.19,0,17.19,0Z" fill="#fff"></path> <path d="m58.81,140.85s-.37-10.8,10.56-11.04h3.35v20.86h-3.35c-10.93.24-10.56,11.04-10.56,11.04v-20.86Z" fill="#fff"></path> <path d="m74.21,199.47h20.72c.82,0,1.49.67,1.49,1.49v27.48c0,1.27-1.48,1.96-2.45,1.14l-8.45-7.06c-.55-.46-1.36-.46-1.91,0l-8.45,7.06c-.97.81-2.45.12-2.45-1.14v-27.48c0-.82.67-1.49,1.49-1.49h0Z" fill="#fff"></path></g> <g class="lit-svg-outline"><path d="m180.48,110.77l7.39.09c2.07.02,3.75,1.7,3.76,3.76l.07,9.7-14.86-.15-.07-9.7c0-1.01.41-1.96,1.07-2.61.68-.68,1.58-1.1,2.64-1.09Z" fill="none" stroke="#000" stroke-linecap="round" stroke-linejoin="round" stroke-width="4"></path> <path d="m176.97,203.27v-78.94h14.61v78.94h-14.61Z" fill="none" stroke="#000" stroke-linecap="round" stroke-linejoin="round" stroke-width="4"></path> <path d="m58.81,140.85s-.37-10.8,10.56-11.04h3.35v20.86h-3.35c-10.93.24-10.56,11.04-10.56,11.04v-20.86Z" fill="none" stroke="#000" stroke-miterlimit="10" stroke-width="2"></path> <path d="m119.43,103.53h8.73c0,6.38,6.24,5.96,6.24,5.96v12.82s-6.24-.42-6.24,5.96h-25.92c0-6.38-6.24-5.96-6.24-5.96v-12.82s6.24.42,6.24-5.96c0,0,17.19,0,17.19,0Z" fill="none" stroke="#000" stroke-linecap="round" stroke-linejoin="round" stroke-width="2"></path> <path d="m72.71,103.53v72.84" fill="none" stroke="#000" stroke-miterlimit="10" stroke-width="2"></path> <path d="m58.81,99.13s-.37-10.8,10.56-11.04h86.3v100.35h-86.3c-10.93.24-10.56,11.04-10.56,11.04v-100.35Z" fill="none" stroke="#000" stroke-linecap="round" stroke-linejoin="round" stroke-width="4"></path> <path d="m74.21,199.47h20.72c.82,0,1.49.67,1.49,1.49v27.48c0,1.27-1.48,1.96-2.45,1.14l-8.45-7.06c-.55-.46-1.36-.46-1.91,0l-8.45,7.06c-.97.81-2.45.12-2.45-1.14v-27.48c0-.82.67-1.49,1.49-1.49h0Z" fill="none" stroke="#000" stroke-linecap="round" stroke-linejoin="round" stroke-width="4"></path> <path d="m155.66,188.43v26.18h-59.25v-13.65c0-.82-.67-1.49-1.49-1.49h-20.72c-.82,0-1.49.67-1.49,1.49v13.65h-3.35c-10.93-.24-10.56-11.04-10.56-11.04v-4.1s-.37-10.8,10.56-11.04h86.3Z" fill="none" stroke="#000" stroke-linecap="round" stroke-linejoin="round" stroke-width="4"></path> <path d="m191.58,203.27l-7.34,15.9-7.27-15.9h14.61Z" fill="none" stroke="#000" stroke-linecap="round" stroke-linejoin="round" stroke-width="4"></path> <path d="m185.91,41.01v35.15c0,1.02-.83,1.86-1.85,1.86h-.09c-1.02,0-1.85-.84-1.85-1.86v-34.14" fill="none" stroke="#000" stroke-linecap="round" stroke-linejoin="round" stroke-width="2"></path> <path d="m186.97,39.14l-65.82,17.42-65.83-17.42,65.83-17.41,41.85,11.07" fill="none" stroke="#000" stroke-linecap="round" stroke-linejoin="round" stroke-width="4"></path> <path d="m158.78,46.56l-.03,9.86c-3.84,3.3-9.39,6.15-16.43,8.17-21.24,6.1-48.02,2.37-59.82-8.33l.03-9.45h1.92l36.71,9.71,37.63-9.96h-.01Z" fill="none" stroke="#000" stroke-linecap="round" stroke-linejoin="round" stroke-width="4"></path> <path d="m122.99,37.66c-1.04,0-1.89-.85-1.89-1.89s.85-1.89,1.89-1.89h58.87c3.94,0,4.52,2.49,4.54,2.59l.25,1.19h-63.67.01Z" fill="none" stroke="#000" stroke-linecap="round" stroke-linejoin="round" stroke-width="2"></path> <path d="m180.34,80.97c0-2.04,1.65-3.68,3.68-3.68s3.68,1.65,3.68,3.68-2.96,10.5-3.68,10.5-3.68-8.47-3.68-10.5Z" fill="none" stroke="#000" stroke-linecap="round" stroke-linejoin="round" stroke-width="2"></path></g></svg>