<svg data-lit-media-id="10182" data-lit-media-name="Health" viewBox="0 0 250 250"><g class="lit-svg-primary-fill"><path d="m123.9,209.91c-16.31-16.31-32.21-32.02-47.9-47.91-11.91-12.09-24.7-23.34-35.5-36.5-11.21-13.68-14-29.31-9.1-46.1,7.76-26.86,35.84-42.34,62.7-34.58,5.32,1.54,10.36,3.94,14.9,7.11,5.61,3.82,9.58,9.44,14.4,13.21h1.27c4.82-3.77,8.8-9.39,14.4-13.21,28.85-19.66,67.84-5.83,77.55,27.43,4.91,16.79,2.12,32.42-9.1,46.1-10.83,13.16-23.63,24.41-35.52,36.54-15.68,15.93-31.58,31.64-47.89,47.95l-.21-.04Z" fill="#66d3ee"></path></g> <g class="lit-svg-outline"><path d="m123.9,209.91c-16.31-16.31-32.21-32.02-47.9-47.91-11.91-12.09-24.7-23.34-35.5-36.5-11.21-13.68-14-29.31-9.1-46.1,7.76-26.86,35.84-42.34,62.7-34.58,5.32,1.54,10.36,3.94,14.9,7.11,5.61,3.82,9.58,9.44,14.4,13.21h1.27c4.82-3.77,8.8-9.39,14.4-13.21,28.85-19.66,67.84-5.83,77.55,27.43,4.91,16.79,2.12,32.42-9.1,46.1-10.83,13.16-23.63,24.41-35.52,36.54-15.68,15.93-31.58,31.64-47.89,47.95l-.21-.04Z" fill="none" stroke="#000" stroke-linecap="round" stroke-linejoin="round" stroke-width="4"></path> <path d="m26,124.38h55.5l10.85-14,18.35,35.67,28.57-46.51,15.64,35.24,10.43-12h55.56" fill="none" stroke="#000" stroke-linecap="round" stroke-linejoin="round" stroke-width="4"></path></g></svg>