<svg xmlns="http://www.w3.org/2000/svg" data-lit-media-id="10178" data-lit-media-name="Living arrangements" viewBox="0 0 250 250"><g class="lit-svg-primary-fill"><path d="m100.06,35.68v22.33h6.38v48.5h-31.45v-.1H18.01V41.59h10.57v-10.67h19.97v-9.75h31.86v14.52h19.65,0Z" fill="#66d3ee"></path> <path d="m228.29,89.36l4.07,5.43h-103.6l4.07-5.43v-19.75h-8.14l21.65-10.74h-.02l4.07-10.41h60.32l3.79,9.7v-5.65c0-.22.18-.41.41-.41h2.97c.22,0,.41.18.41.41v7.84l18.13,9.27h-8.14v19.75h0Z" fill="#66d3ee"></path> <path d="m107.11,178.8c0,12.28-1.21,21.64-1.21,21.64-1.86,11.4-10,10.97-10,10.97h-18.35l-10.23-.11h-15.6c0,.18.03.36.03.55,0,5.98-4.85,10.84-10.84,10.84s-10.84-4.85-10.84-10.84c0-.18.02-.36.03-.55h-4.87c-4.5,0-8.19-3.68-8.19-8.19v-49.36c0-4.5,3.68-8.19,8.19-8.19h42.08l10.23-.08h10.71c18.28,14.64,18.85,33.32,18.85,33.32h0Z" fill="#66d3ee"></path> <path d="m148.69,166.08l31.35-19.84,31.33,19.63v42.78h-62.68v-42.57h0Z" fill="#66d3ee"></path></g> <g class="lit-svg-secondary-fill"><path d="m55.05,29.42h2.34v10.76h-2.34v-10.76Zm8.19,10.76h2.34v-10.76h-2.34s0,10.76,0,10.76Zm8.19,0h2.34v-10.76h-2.34v10.76Zm-16.38,14.51h2.34v-10.76h-2.34v10.76Zm8.19,0h2.34v-10.76h-2.34v10.76Zm8.19,0h2.34v-10.76h-2.34v10.76Zm-16.38,14.51h2.34v-10.76h-2.34v10.76Zm8.19,0h2.34v-10.76h-2.34v10.76Zm8.19,0h2.34v-10.76h-2.34v10.76Zm-16.38,14.51h2.34v-10.76h-2.34v10.76Zm8.19,0h2.34v-10.76h-2.34v10.76Zm8.19,0h2.34v-10.76h-2.34v10.76Zm-16.38,14.51h2.34v-10.76h-2.34v10.76Zm8.19,0h2.34v-10.76h-2.34v10.76Zm8.19,0h2.34v-10.76h-2.34v10.76Z" fill="#fff" fill-rule="evenodd"></path> <path d="m100.77,34.8h-20.93v72.09h5.47l-.02-48.41h15.48s0-23.68,0-23.68Zm-12.93,19.89h-2.34v-10.76h2.34s0,10.76,0,10.76Zm8.19,0h-2.34v-10.76h2.34s0,10.76,0,10.76Z" fill="#fff" fill-rule="evenodd"></path> <path d="m232.36,95.08h-103.6l4.07-5.43h95.46l4.07,5.43h0Z" fill="#fff"></path> <path d="m184.42,89.13h-8.75v-20.61h8.75v20.61Z" fill="#fff"></path> <path d="m154.07,79.76h-8.75v-11.24h8.75v11.24Z" fill="#fff"></path> <path d="m215.91,79.75h-8.75v-11.24h8.75v11.24Z" fill="#fff"></path> <path d="m217.59,64.71h-2.37c-.43,0-.79-.36-.79-.79v-11.22c0-.43.36-.79.79-.79h2.37c.43,0,.79.36.79.79v11.22c0,.43-.36.79-.79.79Z" fill="#fff"></path> <path d="m125.85,69.38l20.62-10.23h-.02l3.55-10.41h61.87l4.05,10.37h1.42l20.24,10.28h-111.73Z" fill="#fff"></path> <path d="m43.75,106.41h-25.74V41.59h25.74v64.82Zm-21.48-55.93h16.73v-2.34h-16.73v2.34Zm0,7.84h16.73v-2.34h-16.73v2.34Zm0,7.84h16.73v-2.34h-16.73v2.34Zm0,7.84h16.73v-2.34h-16.73v2.34Zm0,7.84h16.73v-2.34h-16.73v2.34Zm0,7.84h16.73v-2.34h-16.73v2.34Zm0,7.84h16.73v-2.34h-16.73v2.34Z" fill="#fff" fill-rule="evenodd"></path> <path d="m85.5,58.48v48.41h19.97v-48.41h-19.97Zm15.09,39.18h-10.28v-2.47h10.28v2.47Zm0-7.91h-10.28v-2.47h10.28v2.47Zm0-7.91h-10.28v-2.47h10.28v2.47Zm0-7.91h-10.28v-2.47h10.28v2.47Zm0-7.91h-10.28v-2.47h10.28v2.47Z" fill="#fff" fill-rule="evenodd"></path> <path d="m48.54,29.95v77.89h-4.56l.02-66.23h-16.39v-11.66s20.93,0,20.93,0Z" fill="#fff" fill-rule="evenodd"></path> <path d="m40.9,215.91c-2.38,0-4.31-1.93-4.31-4.31,0-1.12.44-2.14,1.14-2.91.45-.48,1-.87,1.62-1.11.48-.19,1-.29,1.55-.29s1.07.11,1.55.29c.62.24,1.18.62,1.62,1.11.71.77,1.14,1.79,1.14,2.91,0,2.38-1.93,4.31-4.31,4.31Z" fill="#fff"></path> <path d="m36.08,160.09h17.13c1.28,0,2.33,1.05,2.33,2.33v10c0,1.28-1.05,2.33-2.33,2.33h-17.13v-14.66Zm-1.55,14.66h-5.86c-1.28,0-2.33-1.05-2.33-2.33v-10c0-1.28,1.05-2.33,2.33-2.33h5.86v14.66Z" fill="#fff"></path> <path d="m66.72,145.94H31.19c-.55,0-1-.45-1-1v-5.19c0-.55.45-1,1-1h35.53c.55,0,1,.45,1,1v5.19c0,.55-.45,1-1,1Z" fill="#fff"></path> <path d="m224.11,167.82l-.43.68c-1.32,2.09-4.08,2.72-6.17,1.4l-33.01-21.3-4.45-2.67-4.45,2.67-32.86,21.75c-2.09,1.32-4.86.69-6.17-1.4l-.43-.68c-1.32-2.09-.69-4.86,1.4-6.17l32.86-21.75,9.65-6.35,12.56,8.18,30.1,19.48c2.09,1.32,2.72,4.08,1.4,6.17h0Z" fill="#fff"></path> <path d="m194.42,184.96v23.56h-28.75v-23.56c0-7.94,6.44-14.37,14.37-14.37s14.37,6.44,14.37,14.37h.01Z" fill="#fff"></path> <path d="m215.19,221.09h-70.25c-1.1,0-2-.9-2-2v-8.44c0-1.1.9-2,2-2h70.25c1.1,0,2,.9,2,2v8.44c0,1.1-.9,2-2,2Z" fill="#fff"></path> <path d="m63.98,210.41v-47.37c0-1.63,1.33-2.96,2.96-2.96h15.71c1.63,0,2.96,1.33,2.96,2.96v47.37h-21.63Z" fill="#fff"></path></g> <g class="lit-svg-outline"><path d="m80.89,34.82h20.18l-.05,22.7h5.41v49.85l-6.38.1-19.97-.1H17.04V40.62h10.57v-10.67h20.45v-9.75h32.83v14.62Z" fill="none" stroke="#000" stroke-linecap="round" stroke-linejoin="round" stroke-width="4"></path> <path d="m85.31,106.98v-48.4h20.17" fill="none" stroke="#000" stroke-linecap="round" stroke-linejoin="round" stroke-width="2"></path> <path d="m49.1,44.4v63.44h30.73V21.02h-30.73v23.48l.03.95v-3.85" fill="none" stroke="#000" stroke-linecap="round" stroke-linejoin="round" stroke-width="2"></path> <path d="m22.6,41.61h21.4v-.02l-.02,64.82" fill="none" stroke="#000" stroke-linecap="round" stroke-linejoin="round" stroke-width="2"></path> <path d="m132.32,89.13h96.49" fill="none" stroke="#000" stroke-linecap="round" stroke-linejoin="round" stroke-width="2"></path> <path d="m184.42,89.13h-8.75v-20.61h8.75v20.61Z" fill="none" stroke="#000" stroke-miterlimit="10" stroke-width="2"></path> <path d="m216.32,80.25h-9.56v-11.73h9.56v11.73Z" fill="none" stroke="#000" stroke-linecap="round" stroke-linejoin="round" stroke-width="2"></path> <path d="m154.48,80.25h-9.56v-11.73h9.56v11.73Z" fill="none" stroke="#000" stroke-linecap="round" stroke-linejoin="round" stroke-width="2"></path> <path d="m158.22,68.52v26.56" fill="none" stroke="#000" stroke-linejoin="round" stroke-width="2"></path> <path d="m138.19,68.52v26.56" fill="none" stroke="#000" stroke-linejoin="round" stroke-width="2"></path> <path d="m201.6,68.52v26.56" fill="none" stroke="#000" stroke-linejoin="round" stroke-width="2"></path> <path d="m222.78,68.52v26.56" fill="none" stroke="#000" stroke-linejoin="round" stroke-width="2"></path> <path d="m236.43,68.52h-111.73" fill="none" stroke="#000" stroke-linecap="round" stroke-linejoin="round" stroke-width="2"></path> <path d="m229.35,89.24l4.16,6.07h-105.9l4.16-6.07v-19.67h-8.32l22.14-10.98h-.02l4.16-10.64h61.67l1.98,4.89.02-.96c0-.57.46-1.03,1.03-1.03h3.98c.5,0,.93.37,1.01.85,0,0,.04.1.04.28v8.27l18.22,9.33h-8.32v19.67h0Z" fill="none" stroke="#000" stroke-linecap="round" stroke-linejoin="round" stroke-width="4"></path> <path d="m216.9,65.21h-1c-1.1,0-2-.9-2-2v-10.37c0-1.1.9-2,2-2h1c1.1,0,2,.9,2,2v10.37c0,1.1-.9,2-2,2Z" fill="none" stroke="#000" stroke-linecap="round" stroke-linejoin="round" stroke-width="2"></path> <path d="m116.67,198.33l-5.67,8.19h-6.84" fill="none" stroke="#000" stroke-linecap="round" stroke-linejoin="round" stroke-width="2"></path> <path d="m107.11,178.8c0,12.28-1.21,21.64-1.21,21.64-1.86,11.4-10,10.97-10,10.97h-18.35l-10.23-.11h-15.6c0,.18.03.36.03.55,0,5.98-4.85,10.84-10.84,10.84s-10.84-4.85-10.84-10.84c0-.18.02-.36.03-.55h-4.87c-4.5,0-8.19-3.68-8.19-8.19v-49.36c0-4.5,3.68-8.19,8.19-8.19h4.96v-6.03c0-.43.35-.78.78-.78h35.98c.43,0,.78.35.78.78v6.03h.47l9.36-.08h10.71c18.28,14.64,18.85,33.32,18.85,33.32h-.01Z" fill="none" stroke="#000" stroke-linecap="round" stroke-linejoin="round" stroke-width="4"></path> <path d="m85.61,182.45h21.38m-89.87,0h46.86" fill="none" stroke="#000" stroke-miterlimit="10" stroke-width="2"></path> <path d="m67.4,146.57s-36.47.08-36.83,0" fill="none" stroke="#000" stroke-linecap="round" stroke-linejoin="round" stroke-width="2"></path> <path d="m93.1,211.29v9.99" fill="none" stroke="#000" stroke-linecap="round" stroke-linejoin="round" stroke-width="2"></path> <path d="m63.98,210.41v-47.37c0-1.63,1.33-2.96,2.96-2.96h15.71c1.63,0,2.96,1.33,2.96,2.96v47.37h-21.63Z" fill="none" stroke="#000" stroke-miterlimit="10" stroke-width="2"></path> <path d="m70.75,178.69v7.47" fill="none" stroke="#000" stroke-linecap="round" stroke-linejoin="round" stroke-width="2"></path> <path d="m40.9,221.59c-5.5,0-9.98-4.48-9.98-9.98,0-2.6,1.01-4.96,2.64-6.74,1.03-1.12,2.31-2.01,3.76-2.56,1.11-.43,2.32-.68,3.58-.68s2.47.25,3.58.68c1.45.56,2.73,1.44,3.76,2.56,1.64,1.78,2.64,4.14,2.64,6.74,0,5.5-4.48,9.98-9.98,9.98Zm0-4.97c-2.76,0-5.01-2.25-5.01-5.01,0-1.3.51-2.49,1.33-3.38.52-.56,1.16-1.01,1.88-1.29.56-.22,1.16-.34,1.8-.34s1.24.12,1.8.34c.73.28,1.37.72,1.88,1.29.82.89,1.33,2.08,1.33,3.38,0,2.76-2.25,5.01-5.01,5.01Z" fill="none" stroke="#000" stroke-linecap="round" stroke-linejoin="round" stroke-width="2"></path> <path d="m224.06,168.17l-.46.73c-1.41,2.24-4.37,2.92-6.62,1.5l-5.02-3.45v40.59h4.33c.97,0,1.76.79,1.76,1.76v10.12c0,.97-.79,1.76-1.76,1.76h-72.44c-.97,0-1.76-.79-1.76-1.76v-10.12c0-.97.79-1.76,1.76-1.76h4.25v-40.58l-4.99,3.44c-2.24,1.41-5.21.74-6.62-1.5l-.46-.73c-1.41-2.24-.74-5.21,1.5-6.62l32.16-20.25,10.35-6.81,13.46,8.77,29.05,18.29c2.24,1.41,2.92,4.37,1.5,6.62h0Z" fill="none" stroke="#000" stroke-linecap="round" stroke-linejoin="round" stroke-width="4"></path> <path d="m148.11,165.71l31.95-20.07,31.92,19.86v43.02h-63.87v-42.81h0Z" fill="none" stroke="#000" stroke-linecap="round" stroke-linejoin="round" stroke-width="2"></path> <path d="m211.37,165.83h-62.68" fill="none" stroke="#000" stroke-miterlimit="10" stroke-width="2"></path> <path d="m165.95,182.13h-17.26m62.68,0h-17.23" fill="none" stroke="#000" stroke-miterlimit="10" stroke-width="2"></path> <path d="m165.67,198.43h-16.98m62.68,0h-16.95" fill="none" stroke="#000" stroke-miterlimit="10" stroke-width="2"></path></g></svg>