<svg data-lit-media-id="10340" data-lit-media-name="Alert: Flood and storm" viewBox="0 0 250 250"><g class="lit-svg-primary-fill"><path d="m72.2,185.2c33.25,0,60.2-26.95,60.2-60.2s-26.95-60.2-60.2-60.2S12,91.75,12,125h0c.01,33.24,26.96,60.19,60.2,60.2Z" fill="#66d3ee"></path> <path d="m238,183.71c-12.61,14.13-27.19,0-27.19,0-14.79,15.22-31.1,0-31.1,0-17.4,15-27.84,1.08-27.84,1.08v-44.42s10.44,13.92,27.84-1.09c0,0,16.31,15.22,31.1,0,0,0,14.58,14.14,27.19,0v44.43Z" fill="#66d3ee"></path></g> <g class="lit-svg-secondary-fill"><path d="m183.42,142c3.26-1.41,6.26-3.34,8.9-5.71,0,0,5.88,6.07,13.93,6.7-9.05,5.8-17.99,2.07-22.83-.99Z" fill="#fff"></path> <path d="m153.26,141.81c4.54-.29,8.94-1.66,12.84-4,2.01,2.75,4.98,4.65,8.32,5.34-10.85,6.37-18.28,1.36-21.16-1.34Z" fill="#fff"></path> <path d="m214,141.8c2.95-1.27,5.59-3.13,7.78-5.48,0,0,6.29,4.71,13.62,5.4-8.25,6.83-16.86,3.06-21.4.08Z" fill="#fff"></path> <path d="m66.18,94.9h12v36.1h-12v-36.1Z" fill="#fff"></path> <path d="m66.18,143.06h12v12h-12v-12Z" fill="#fff"></path></g> <g class="lit-svg-outline"><path d="m66.18,94.9h12v36.1h-12v-36.1Z" fill="none" stroke="#000" stroke-linecap="round" stroke-linejoin="round" stroke-width="4"></path> <path d="m66.18,143.06h12v12h-12v-12Z" fill="none" stroke="#000" stroke-linecap="round" stroke-linejoin="round" stroke-width="4"></path> <path d="m72.2,185.2c33.25,0,60.2-26.95,60.2-60.2s-26.95-60.2-60.2-60.2S12,91.75,12,125h0c.01,33.24,26.96,60.19,60.2,60.2Z" fill="none" stroke="#000" stroke-miterlimit="10" stroke-width="4"></path> <path d="m207.72,79.52c-.93,0-1.87.12-2.8.12h-45.75c-4.57.22-8.64-2.88-9.64-7.35-1-3.55.29-7.51,4.36-10s9.25-1.48,12.4,3c.28.4.51.84.76,1.26" fill="none" stroke="#000" stroke-linecap="round" stroke-linejoin="round" stroke-width="4"></path> <path d="m179,105.75c-1.38,2.62-4.18,4.52-6.35,4.17-4.07-.66-5.76-2.62-6.38-5.69-.79-4,2.64-7.84,7.14-7.85h42.19" fill="none" stroke="#000" stroke-linecap="round" stroke-linejoin="round" stroke-width="4"></path> <path d="m213.56,69.76c-3.3-.09-6.6-.22-9.91-.24-6.44,0-12.88-.2-19.31.06-3.13.09-5.94-1.91-6.88-4.89-.9-3.03.23-6.29,2.81-8.11,3.92-2.69,9.64-.47,10.42,4.05" fill="none" stroke="#000" stroke-linecap="round" stroke-linejoin="round" stroke-width="4"></path> <path d="m196.54,87.75h31.77c.93,0,1.86.08,2.79.12" fill="none" stroke="#000" stroke-linecap="round" stroke-linejoin="round" stroke-width="4"></path> <path d="m187.89,87.75h-17.79" fill="none" stroke="#000" stroke-linecap="round" stroke-linejoin="round" stroke-width="4"></path> <path d="m153.26,140.68c9.25,2.7,14.3-3.71,14.3-3.71,0,0,9.87,13.17,26.33-1,0,0,15.43,14.41,29.42,0,0,0,5.89,5.71,13.3,5.94" fill="none" stroke="#000" stroke-linecap="round" stroke-linejoin="round" stroke-width="4"></path> <path d="m236.61,155.7c-10.63,6.4-21.18-3.84-21.18-3.84-14,14.41-29.42,0-29.42,0-16.46,14.2-26.34,1-26.34,1" fill="none" stroke="#000" stroke-linecap="round" stroke-linejoin="round" stroke-width="4"></path> <path d="m234.72,187.55c-10.64,6.39-21.19-3.84-21.19-3.84-14,14.4-29.42,0-29.42,0-16.46,14.19-26.34,1-26.34,1" fill="none" stroke="#000" stroke-linecap="round" stroke-linejoin="round" stroke-width="4"></path> <path d="m233.26,167.79c-11.93,13.37-25.72,0-25.72,0-14,14.4-29.42,0-29.42,0-16.46,14.19-26.33,1-26.33,1" fill="none" stroke="#000" stroke-linecap="round" stroke-linejoin="round" stroke-width="4"></path></g></svg>