<svg data-lit-media-id="13833" data-lit-media-name="Data breach" viewBox="0 0 250 250"><g class="lit-svg-primary-fill"><path d="m127.11,109.6h-3.43c-.21,0-.38.17-.38.39v10.15c0,.21.17.39.38.39h3.43c.22,0,.39-.18.39-.39v-10.15c0-.22-.17-.39-.39-.39Zm0,13.48h-3.42c-.22,0-.39.17-.39.39v3.42c0,.21.17.39.39.39h3.42c.22,0,.39-.18.39-.39v-3.42c0-.22-.17-.39-.39-.39Zm-1.71-32.66l-27.42,7.28v18.3c0,5.43,1.2,10.74,3.36,15.57l8.19-6.41c-.88-2.07-1.37-4.34-1.37-6.73,0-9.51,7.72-17.23,17.24-17.23s17.23,7.72,17.23,17.23-7.72,17.24-17.23,17.24c-6.37,0-11.94-3.46-14.91-8.6l-4.64,6.51,5.1.94-5.34,4.43c4.9,6.67,11.82,11.68,19.79,13.64,15.72-3.84,27.42-19.65,27.42-36.56v-18.3s-27.42-7.31-27.42-7.31Zm0,0l-27.42,7.28v18.3c0,5.43,1.2,10.74,3.36,15.57l8.19-6.41c-.88-2.07-1.37-4.34-1.37-6.73,0-9.51,7.72-17.23,17.24-17.23s17.23,7.72,17.23,17.23-7.72,17.24-17.23,17.24c-6.37,0-11.94-3.46-14.91-8.6l-4.64,6.51,5.1.94-5.34,4.43c4.9,6.67,11.82,11.68,19.79,13.64,15.72-3.84,27.42-19.65,27.42-36.56v-18.3s-27.42-7.31-27.42-7.31Zm-2.1,36.47c0,.21.17.39.39.39h3.42c.22,0,.39-.18.39-.39v-3.42c0-.22-.17-.39-.39-.39h-3.42c-.22,0-.39.17-.39.39v3.42Zm3.81-6.36c.22,0,.39-.18.39-.39v-10.15c0-.22-.17-.39-.39-.39h-3.43c-.21,0-.38.17-.38.39v10.15c0,.21.17.39.38.39h3.43Zm37.05-101.95h-78.32c-13.51,0-24.48,10.84-24.48,24.19v164.46c0,13.35,10.97,24.19,24.48,24.19h78.32c13.51,0,24.48-10.84,24.48-24.19V42.77c0-13.35-10.97-24.19-24.48-24.19Zm10.71,165.28c0,3.15-2.55,5.71-5.71,5.71h-88.18c-3.15,0-5.71-2.56-5.71-5.71V43.9c0-3.16,2.56-5.71,5.71-5.71h88.18c3.16,0,5.71,2.55,5.71,5.71v139.96h0Zm-76.89-86.16v18.3c0,5.43,1.2,10.74,3.36,15.57l8.19-6.41c-.88-2.07-1.37-4.34-1.37-6.73,0-9.51,7.72-17.23,17.24-17.23s17.23,7.72,17.23,17.23-7.72,17.24-17.23,17.24c-6.37,0-11.94-3.46-14.91-8.6l-4.64,6.51,5.1.94-5.34,4.43c4.9,6.67,11.82,11.68,19.79,13.64,15.72-3.84,27.42-19.65,27.42-36.56v-18.3l-27.42-7.31s-27.42,7.28-27.42,7.28Zm25.32,29.19c0,.21.17.39.39.39h3.42c.22,0,.39-.18.39-.39v-3.42c0-.22-.17-.39-.39-.39h-3.42c-.22,0-.39.17-.39.39v3.42Zm3.81-6.36c.22,0,.39-.18.39-.39v-10.15c0-.22-.17-.39-.39-.39h-3.43c-.21,0-.38.17-.38.39v10.15c0,.21.17.39.38.39h3.43Z" fill="#6ccce7"></path> <path d="m127.11,109.6h-3.43c-.21,0-.38.17-.38.39v10.15c0,.21.17.39.38.39h3.43c.22,0,.39-.18.39-.39v-10.15c0-.22-.17-.39-.39-.39Zm0,13.48h-3.42c-.22,0-.39.17-.39.39v3.42c0,.21.17.39.39.39h3.42c.22,0,.39-.18.39-.39v-3.42c0-.22-.17-.39-.39-.39Zm-1.71-32.66l-27.42,7.28v18.3c0,5.43,1.2,10.74,3.36,15.57l8.19-6.41c-.88-2.07-1.37-4.34-1.37-6.73,0-9.51,7.72-17.23,17.24-17.23s17.23,7.72,17.23,17.23-7.72,17.24-17.23,17.24c-6.37,0-11.94-3.46-14.91-8.6l-4.64,6.51,5.1.94-5.34,4.43c4.9,6.67,11.82,11.68,19.79,13.64,15.72-3.84,27.42-19.65,27.42-36.56v-18.3s-27.42-7.31-27.42-7.31Z" fill="#77cfe9"></path> <path d="m127.11,123.08h-3.42c-.22,0-.39.17-.39.39v3.42c0,.21.17.39.39.39h3.42c.22,0,.39-.18.39-.39v-3.42c0-.22-.17-.39-.39-.39Zm0-13.48h-3.43c-.21,0-.38.17-.38.39v10.15c0,.21.17.39.38.39h3.43c.22,0,.39-.18.39-.39v-10.15c0-.22-.17-.39-.39-.39Z" fill="#77cfe9"></path></g> <g class="lit-svg-secondary-fill"><path d="m169.16,38.19h-88.18c-3.15,0-5.71,2.55-5.71,5.71v139.96c0,3.15,2.56,5.71,5.71,5.71h88.18c3.16,0,5.71-2.56,5.71-5.71V43.9c0-3.16-2.55-5.71-5.71-5.71Zm-16.34,77.84c0,16.91-11.7,32.72-27.42,36.56-7.97-1.96-14.89-6.97-19.79-13.64l5.34-4.43-5.1-.94,4.64-6.51c2.97,5.14,8.54,8.6,14.91,8.6,9.51,0,17.23-7.72,17.23-17.24s-7.72-17.23-17.23-17.23-17.24,7.72-17.24,17.23c0,2.39.49,4.66,1.37,6.73l-8.19,6.41c-2.16-4.83-3.36-10.14-3.36-15.57v-18.3l27.42-7.28,27.42,7.31v18.3Zm-29.13,7.05h3.42c.22,0,.39.17.39.39v3.42c0,.21-.17.39-.39.39h-3.42c-.22,0-.39-.17-.39-.39v-3.42c0-.22.17-.39.39-.39Zm-.39-2.94v-10.15c0-.22.17-.39.38-.39h3.43c.22,0,.39.17.39.39v10.15c0,.21-.17.39-.39.39h-3.43c-.21,0-.38-.18-.38-.39Z" fill="none"></path></g> <g class="lit-svg-outline"><path d="m164.16,18.58h-78.32c-13.51,0-24.48,10.83-24.48,24.19v164.46c0,13.35,10.97,24.19,24.48,24.19h78.33c13.51,0,24.48-10.84,24.48-24.19V42.77c0-13.35-10.97-24.19-24.48-24.19h0Z" fill="none" stroke="#000" stroke-linecap="round" stroke-linejoin="round" stroke-width="4"></path> <path d="m87.07,94.88v-40.44c0-2.8,2.27-5.06,5.06-5.06h20.44m51,94v30.43c0,2.8-2.27,5.06-5.06,5.06h-10.44m-61-63.99v-9.12" fill="none" stroke="#000" stroke-linecap="round" stroke-linejoin="round" stroke-width="2"></path> <path d="m169.16,189.57h-88.18c-3.15,0-5.71-2.56-5.71-5.71V43.89c0-3.15,2.56-5.71,5.71-5.71h88.18c3.15,0,5.71,2.56,5.71,5.71v139.97c0,3.15-2.56,5.71-5.71,5.71Zm-44.16,31.43c-6.28,0-11.35-5.07-11.35-11.35s5.07-11.35,11.35-11.35,11.35,5.07,11.35,11.35-5.07,11.35-11.35,11.35Z" fill="none" stroke="#000" stroke-linecap="round" stroke-linejoin="round" stroke-width="2"></path> <path d="m133.92,71.07l-1.07,2.91c5.01,2.67,8.42,7.95,8.42,14.02v6.65l3.14.84v-7.43c0-7.43-4.27-13.87-10.49-16.99h0Zm-27.53,16.99v7.41l3.14-.84v-6.63c0-8.77,7.11-15.87,15.87-15.87,1.75,0,3.44.28,5.02.81l1.07-2.89c-1.91-.65-3.96-1-6.09-1-10.5,0-19.01,8.51-19.01,19.01Z" fill="none" stroke="#000" stroke-linecap="round" stroke-linejoin="round" stroke-width="2"></path> <path d="m152.82,97.73v18.3c0,16.91-11.7,32.72-27.42,36.56-7.97-1.96-14.89-6.97-19.79-13.64l5.34-4.43-5.1-.94,4.64-6.51,4.26-5.99-5.22,4.08-8.19,6.41c-2.16-4.83-3.36-10.14-3.36-15.57v-18.3l8.41-2.23,3.14-.84,15.87-4.21,15.87,4.23,3.14.84,8.41,2.24h0Z" fill="none" stroke="#000" stroke-linecap="round" stroke-linejoin="round" stroke-width="2"></path> <path d="m125.4,101.2c-9.52,0-17.24,7.72-17.24,17.23,0,2.39.49,4.66,1.37,6.73l5.22-4.08-4.26,5.99c2.97,5.14,8.54,8.6,14.91,8.6,9.51,0,17.23-7.72,17.23-17.24s-7.72-17.23-17.23-17.23Z" fill="none" stroke="#000" stroke-linecap="round" stroke-linejoin="round" stroke-width="2"></path> <path d="m127.11,123.08h-3.42c-.22,0-.39.17-.39.39v3.42c0,.21.17.39.39.39h3.42c.22,0,.39-.18.39-.39v-3.42c0-.22-.17-.39-.39-.39Zm0-13.48h-3.43c-.21,0-.38.17-.38.39v10.15c0,.21.17.39.38.39h3.43c.22,0,.39-.18.39-.39v-10.15c0-.22-.17-.39-.39-.39Zm7.19-43.32l2.26-6.54m-5.92,5.61l-1.33-3.73m8.06,6.64l3.57-1.72" fill="none" stroke="#000" stroke-linecap="round" stroke-linejoin="round" stroke-width="2"></path></g></svg>