<svg data-lit-media-id="10177" data-lit-media-name="Raising kids" viewBox="0 0 250 250"><g class="lit-svg-primary-fill"><path d="m173.2,203.8s-8.7,5.8-23.4,5.8h-1.5c-14.7,0-23.4-5.8-23.4-5.8,0-7.1-.2-9.3.1-13.7.5-10.6,4.2-16,7.9-18.6,6.1,7.7,16.9,10.1,25.8,5.1,2.5-1.4,4.6-3.3,6.3-5.4,3.8,2.6,7.7,7.9,8.3,18.9,0,4.4-.1,7.3-.1,13.7h0Zm-48.2-13.7c.5-10.6,4.2-16,7.9-18.6-.7-.9-1.3-1.8-1.8-2.7-1.9-3.5-2.7-7.3-2.5-11-.7-.6-1.4-1.2-2.1-1.6-2.1,2.7-4.8,5.1-8,6.9-11.2,6.2-25.1,3.2-32.9-6.6-4.7,3.4-9.4,10.2-10,23.7-.3,5.6-.1,8.4-.1,17.5,0,0,11.1,7.4,29.8,7.4h1.9c7.1,0,13-1.1,17.7-2.4,0-6.2-.1-8.4.1-12.6h0Z" fill="#66d3ee"></path></g> <g class="lit-svg-outline"><path d="m105.9,166.4c-14.3,0-25.9-11.6-25.9-25.9s11.6-25.9,25.9-25.9,25.9,11.6,25.9,25.9-11.6,25.9-25.9,25.9Z" fill="none" stroke="#231f20" stroke-linecap="round" stroke-linejoin="round" stroke-width="4"></path> <path d="m19.1,111.8c-9.8-17.5-3.5-39.6,14-49.4,17.5-9.8,39.6-3.5,49.4,14s3.5,39.6-14,49.4c-17.5,9.7-39.6,3.5-49.4-14Z" fill="none" stroke="#231f20" stroke-linecap="round" stroke-linejoin="round" stroke-width="4"></path> <path d="m167.5,112.4c-9.8-17.5-3.5-39.6,14-49.4,17.5-9.8,39.6-3.5,49.4,14,9.8,17.5,3.5,39.6-14,49.4-17.5,9.8-39.6,3.5-49.4-14h0Z" fill="none" stroke="#231f20" stroke-linecap="round" stroke-linejoin="round" stroke-width="4"></path> <path d="m131,168.7c-5.4-9.8-1.9-22.2,7.9-27.6s22.2-1.9,27.6,7.9,1.9,22.2-7.9,27.6-22.2,1.9-27.6-7.9Z" fill="none" stroke="#231f20" stroke-linecap="round" stroke-linejoin="round" stroke-width="4"></path> <path d="m158.9,158.4v4.1" fill="none" stroke="#231f20" stroke-linecap="round" stroke-linejoin="round" stroke-width="3"></path> <path d="m147,158.4v4.1" fill="none" stroke="#231f20" stroke-linecap="round" stroke-linejoin="round" stroke-width="3"></path> <path d="m173.2,203.8s-8.7,5.8-23.4,5.8h-1.5c-14.7,0-23.4-5.8-23.4-5.8,0-7.1-.2-9.3.1-13.7.5-10.6,4.2-16,7.9-18.6,6.1,7.7,16.9,10.1,25.8,5.1,2.5-1.4,4.6-3.3,6.3-5.4,3.8,2.6,7.7,7.9,8.3,18.9,0,4.4-.1,7.3-.1,13.7h0Z" fill="none" stroke="#231f20" stroke-linecap="round" stroke-linejoin="round" stroke-width="4"></path> <path d="m235.2,193.1s-12.1,7.7-34.8,7.8h-2.3c-10.7,0-19.1-1.7-24.9-3.5,0-2.6,0-4.6-.1-7.2-.5-11-4.5-16.3-8.3-18.9-.1.1.1-.1,0,0,5-6.2,5.7-14.8,1.6-22.2-1.1-2-2.5-3.8-4.2-5.2,1.4-12.8,6-19.9,10.8-23.8,11.2,11.6,29.1,14.7,43.8,6.4,3.1-1.8,5.9-3.9,8.3-6.4,5.3,4.3,10.3,12.5,11,27.8.5,6.8.8,35.2-.9,45.2h0Z" fill="none" stroke="#231f20" stroke-linecap="round" stroke-linejoin="round" stroke-width="4"></path> <path d="m83.3,127.6c-4.2,7.6-4.6,17.1-.1,25.3.7,1.2,1.5,2.4,2.3,3.5h0c-4.7,3.4-9.4,10.2-10,23.7-.3,5.5-.1,8.3-.1,16.9-5.7,1.7-13.6,3.1-23.5,3.1h-2.3c-22.7.1-34.8-7.6-34.8-7.6-1.5-8.7-1.4-36.3-1.3-42.6.2-17.2,5.6-26.1,11.2-30.6,11.2,11.6,29.1,14.7,43.8,6.4,3.2-1.8,5.9-3.9,8.3-6.4,2.3,2,4.6,4.7,6.5,8.3h0Z" fill="none" stroke="#231f20" stroke-linecap="round" stroke-linejoin="round" stroke-width="4"></path> <path d="m109.8,134.9v4.5" fill="none" stroke="#231f20" stroke-linecap="round" stroke-linejoin="round" stroke-width="3"></path> <path d="m93,134.9v4.5" fill="none" stroke="#231f20" stroke-linecap="round" stroke-linejoin="round" stroke-width="3"></path> <path d="m124.9,202.7c-4.7,1.3-10.7,2.4-17.7,2.4h-1.9c-18.8,0-29.8-7.4-29.8-7.4,0-9-.2-11.8.1-17.5.6-13.6,5.4-20.4,10-23.7,7.7,9.8,21.6,12.8,32.9,6.6,3.2-1.8,5.9-4.1,8-6.9.7.5,1.4,1,2.1,1.6-.2,3.7.6,7.5,2.5,11,.5,1,1.2,1.9,1.8,2.7-3.7,2.7-7.4,8-7.9,18.6-.3,4.2-.1,6.4-.1,12.6h0Z" fill="none" stroke="#231f20" stroke-miterlimit="10" stroke-width="4"></path> <path d="m64.4,100.7c-.5-4.2,1.7-7.9,4.9-8.3s6.2,2.7,6.7,6.9" fill="none" stroke="#262223" stroke-linecap="round" stroke-miterlimit="10" stroke-width="2"></path> <path d="m51.5,100c-.5-4.2-4.1-7.2-8-6.7s-6.6,4.3-6.1,8.5" fill="none" stroke="#262223" stroke-linecap="round" stroke-miterlimit="10" stroke-width="2"></path> <path d="m182.8,94.8c.7-4.2-1.4-8-4.6-8.5-3.2-.5-6.3,2.4-7,6.6" fill="none" stroke="#262223" stroke-linecap="round" stroke-miterlimit="10" stroke-width="2"></path> <path d="m195.6,94.6c.7-4.2,4.4-7,8.3-6.4,3.9.6,6.4,4.5,5.8,8.7" fill="none" stroke="#262223" stroke-linecap="round" stroke-miterlimit="10" stroke-width="2"></path></g></svg>