<svg xmlns="http://www.w3.org/2000/svg" data-lit-media-id="11173" data-lit-media-name="Work" viewBox="0 0 250 250"><g class="lit-svg-primary-fill"><path d="m110.34,92.86l.07-.02v-4.43c0-16.73-10.02-31.11-24.37-37.51-.26-1.38-.55-2.39-.84-2.74,0,0-6.34-2.29-11.48-2.78l-.11-.98c0-.81-.66-1.46-1.46-1.46h-6.19c-.81,0-1.47.65-1.47,1.46l-.11,1c-5.1.53-11.26,2.76-11.26,2.76-.31.37-.6,1.45-.88,2.93-14.13,6.5-23.95,20.76-23.95,37.33v4.43s-3.35,3.12-.35,5.66c.34.29.78.58,1.31.85,0,0,1.48.11,2.92.92.43.25.86.55,1.24.94.58.59,1.06,1.37,1.28,2.39,0,0,.08,2.79,7.24,4.94.73.22,1.54.44,2.44.64.22.05.44.09.65.15.55.11,1.13.23,1.74.34.37.06.76.13,1.16.2,1.56.25,3.32.47,5.29.64.33.03.66.06,1.01.08,1.44.11,3,.21,4.68.28.35.02.71.03,1.06.04.8.02,1.62.05,2.46.06h13.97c.9-.02,1.79-.04,2.63-.07,14.25-.51,20.37-2.85,22.98-4.76.05-.03.1-.07.16-.11,1.78-1.34,1.81-2.43,1.81-2.43.15-.67.39-1.25.74-1.72.48-.72,1.12-1.24,1.78-1.61,1.43-.81,2.93-.92,2.93-.92.84-.43,1.43-.89,1.83-1.37.01-.01.01-.02.02-.03,1.91-2.3-.66-4.87-.88-5.09h-.05Z" fill="#66d3ee"></path> <path d="m105.15,136.99H33.44c-4.38,0-7.97,3.59-7.97,7.97v48.64c0,4.38,3.59,7.97,7.97,7.97h26.24l-6.73,6.1v4.81h32.69v-4.81l-6.73-6.1h26.24c4.38,0,7.97-3.59,7.97-7.97v-48.64c0-4.38-3.59-7.97-7.97-7.97Z" fill="#66d3ee"></path> <path d="m167.04,65.01l34.83,34.79c1.87,1.87,1.87,4.91,0,6.79s-4.92,1.88-6.79,0l-34.92-34.85c-4.91,2.12-10.82,1.2-14.85-2.79s-5-9.9-2.92-14.82l10.25,10.16,6.78-6.83-10.36-10.27c4.97-2.34,11.09-1.47,15.23,2.62,4.13,4.1,5.05,10.21,2.75,15.21h0Z" fill="#66d3ee"></path> <path d="m232.52,171.31l-.04-21.13c0-.98-.8-1.78-1.79-1.78l-19.12.03-.02-9.16c0-3.54-2.91-6.44-6.45-6.43l-36.35.07c-3.54,0-6.43,2.91-6.43,6.46l.02,9.16-19.32.03c-.98,0-1.78.8-1.78,1.79l.04,21.13.03,14.05.04,21.3c0,.98.8,1.78,1.79,1.78l87.67-.16c.98,0,1.78-.8,1.78-1.79l-.04-21.3-.03-14.05h0Zm-62.5-26.4c0-2.64,1.67-4,4.92-4.01l24-.04c3.25,0,4.93,1.35,4.94,3.99v3.6l-33.86.06v-3.6h0Z" fill="#66d3ee"></path></g> <g class="lit-svg-secondary-fill"><path d="m104.21,189.64H34.68c-1.36,0-2.47-1.11-2.47-2.47v-40.32c0-1.36,1.11-2.47,2.47-2.47h69.53c1.36,0,2.47,1.11,2.47,2.47v40.32c0,1.36-1.11,2.47-2.47,2.47h0Z" fill="#fff"></path> <path d="m53.66,207.86l6.59-6.79h18.11l6.59,6.79h-31.29Z" fill="#fff"></path> <path d="m161.59,186.56h-1.82c-1.65,0-3-1.34-3-2.99l-.02-10.76c0-1.65,1.35-3,3-3h1.82c1.65,0,3,1.34,3,2.99l.02,10.76c0,1.65-1.35,3-3,3Z" fill="#fff"></path> <path d="m214.48,186.56h-1.82c-1.65,0-3-1.34-3-2.99l-.02-10.76c0-1.65,1.35-3,3-3h1.82c1.65,0,3,1.34,3,2.99l.02,10.76c0,1.65-1.35,3-3,3Z" fill="#fff"></path></g> <g class="lit-svg-outline"><path d="m110.34,92.86l.07-.02v-4.43c0-16.73-10.02-31.11-24.37-37.51-.26-1.38-.55-2.39-.84-2.74,0,0-6.34-2.29-11.48-2.78l-.11-.98c0-.81-.66-1.46-1.46-1.46h-6.19c-.81,0-1.47.65-1.47,1.46l-.11,1c-5.1.53-11.26,2.76-11.26,2.76-.31.37-.6,1.45-.88,2.93-14.13,6.5-23.95,20.76-23.95,37.33v4.43s-3.35,3.12-.35,5.66c.34.29.78.58,1.31.85,0,0,1.48.11,2.92.92.43.25.86.55,1.24.94.58.59,1.06,1.37,1.28,2.39,0,0,.08,2.79,7.24,4.94.73.22,1.54.44,2.44.64.22.05.44.09.65.15.55.11,1.13.23,1.74.34.37.06.76.13,1.16.2,1.56.25,3.32.47,5.29.64.33.03.66.06,1.01.08,1.44.11,3,.21,4.68.28.35.02.71.03,1.06.04.8.02,1.62.05,2.46.06h13.97c.9-.02,1.79-.04,2.63-.07,14.25-.51,20.37-2.85,22.98-4.76.05-.03.1-.07.16-.11,1.78-1.34,1.81-2.43,1.81-2.43.15-.67.39-1.25.74-1.72.48-.72,1.12-1.24,1.78-1.61,1.43-.81,2.93-.92,2.93-.92.84-.43,1.43-.89,1.83-1.37.01-.01.01-.02.02-.03,1.91-2.3-.66-4.87-.88-5.09h-.05Z" fill="none" stroke="#000" stroke-linecap="round" stroke-linejoin="round" stroke-width="4"></path> <path d="m85.78,96.51c-12.56.85-23.79.64-32.9.05" fill="none" stroke="#000" stroke-linecap="round" stroke-linejoin="round" stroke-width="2"></path> <path d="m95.87,95.63c2.48-.28,5.01-.59,7.58-.97,2.14-.3,4.3-.64,6.48-1.02,0,0,2.4,2.16,1.3,4.3-.01.01-.01.02-.02.03-.34.65-1.03,1.3-2.21,1.89,0,0-1.17.09-2.44.65-.65.3-1.34.74-1.88,1.36-.49.53-.86,1.2-1.05,2.06,0,0-.03.92-1.49,2.1-.05.04-.1.08-.16.11l-.22.16s-.02.02-.03.02h-.01s-.05.05-.08.07c-.01,0-.01.01-.02.01-.04.03-.08.06-.13.09-.18.11-.37.24-.58.36-.11.06-.23.13-.35.2-.07.04-.15.07-.22.11-.15.07-.3.16-.46.23-.15.06-.29.13-.45.2-.13.06-.27.11-.42.18-.05.03-.11.05-.18.07-.17.06-.33.13-.52.2-.01.01-.03.01-.04.02-.21.08-.44.16-.66.23-.17.06-.33.11-.51.17-.65.22-1.39.42-2.2.61-.08.02-.18.04-.26.06-.09.02-.19.04-.27.06-.22.05-.44.1-.65.15-.28.06-.57.12-.87.18-.24.05-.47.09-.72.13-.04.01-.09.02-.15.03-.22.04-.45.07-.67.11l-.4.06c-.39.06-.81.12-1.24.19-.28.04-.57.08-.87.11-.29.04-.59.07-.9.11-.3.04-.62.07-.94.1s-.65.06-.99.09c-.17.02-.33.04-.5.04-.17.03-.34.04-.52.05-.28.03-.57.05-.86.07-.06,0-.12.01-.19.01-.36.03-.73.05-1.1.07-.3.02-.61.04-.91.06-.08,0-.16.01-.24.01-.44.02-.88.04-1.33.06-.44.02-.87.04-1.32.05-.84.03-1.72.05-2.63.07h-13.97c-.84-.01-1.66-.04-2.46-.06-.35-.01-.71-.02-1.06-.04-1.68-.07-3.24-.17-4.68-.28-.34-.02-.67-.05-1.01-.08-1.97-.18-3.74-.39-5.29-.64-.4-.06-.79-.12-1.16-.2-.61-.11-1.19-.23-1.74-.34-.22-.05-.44-.09-.65-.15-.9-.21-1.71-.43-2.44-.64-.55-.17-1.05-.34-1.52-.51-.08-.03-.16-.06-.23-.08-.16-.06-.31-.12-.46-.18-4.47-1.88-4.55-3.84-4.55-3.84-.27-1.26-.97-2.13-1.76-2.72-.43-.32-.88-.57-1.32-.76-1.2-.51-2.28-.59-2.28-.59-.87-.43-1.46-.89-1.86-1.37-1.91-2.29.91-4.85.91-4.85,0,0,2.23.48,6.27,1.08,2.1.3,4.68.64,7.69.97" fill="none" stroke="#000" stroke-linecap="round" stroke-linejoin="round" stroke-width="2"></path> <path d="m51.17,100.4h-6.66c-.94,0-1.72-.77-1.72-1.72v-6.66c0-.94.77-1.72,1.72-1.72h6.66c.94,0,1.72.77,1.72,1.72v6.66c0,.94-.77,1.72-1.72,1.72Z" fill="none" stroke="#000" stroke-linecap="round" stroke-linejoin="round" stroke-width="2"></path> <path d="m94.15,100.4h-6.66c-.94,0-1.72-.77-1.72-1.72v-6.66c0-.94.77-1.72,1.72-1.72h6.66c.94,0,1.72.77,1.72,1.72v6.66c0,.94-.77,1.72-1.72,1.72Z" fill="none" stroke="#000" stroke-linecap="round" stroke-linejoin="round" stroke-width="2"></path> <path d="m51.32,68.85s1.18-18.31,2.64-20.08c0,0,7.59-2.74,12.66-2.74h5.35c5.07,0,12.66,2.74,12.66,2.74,1.47,1.76,2.64,20.08,2.64,20.08" fill="none" stroke="#000" stroke-linecap="round" stroke-linejoin="round" stroke-width="2"></path> <path d="m104.65,189.93H34.24c-1.38,0-2.5-1.12-2.5-2.5v-40.83c0-1.38,1.12-2.5,2.5-2.5h70.41c1.38,0,2.5,1.12,2.5,2.5v40.83c0,1.38-1.12,2.5-2.5,2.5Z" fill="none" stroke="#000" stroke-linecap="round" stroke-linejoin="round" stroke-width="2"></path> <path d="m36.74,167.63v-16.63c0-1.15.93-2.08,2.08-2.08h8.41" fill="none" stroke="#000" stroke-linecap="round" stroke-linejoin="round" stroke-width="2"></path> <path d="m101.95,178.02v5.22c0,1.15-.93,2.08-2.08,2.08h-8.41" fill="none" stroke="#000" stroke-linecap="round" stroke-linejoin="round" stroke-width="2"></path> <path d="m101.95,170.61v2.78" fill="none" stroke="#000" stroke-linecap="round" stroke-linejoin="round" stroke-width="2"></path> <path d="m101.95,166.6v1.39" fill="none" stroke="#000" stroke-linecap="round" stroke-linejoin="round" stroke-width="2"></path> <path d="m36.74,175.86v-3.75" fill="none" stroke="#000" stroke-linecap="round" stroke-linejoin="round" stroke-width="2"></path> <path d="m105.15,136.99H33.44c-4.38,0-7.97,3.59-7.97,7.97v48.64c0,4.38,3.59,7.97,7.97,7.97h26.24l-6.73,6.1v4.81h32.69v-4.81l-6.73-6.1h26.24c4.38,0,7.97-3.59,7.97-7.97v-48.64c0-4.38-3.59-7.97-7.97-7.97Z" fill="none" stroke="#000" stroke-linecap="round" stroke-linejoin="round" stroke-width="4"></path> <path d="m167.04,65.01l34.83,34.79c1.87,1.87,1.87,4.91,0,6.79s-4.92,1.88-6.79,0l-34.92-34.85c-4.91,2.12-10.82,1.2-14.85-2.79s-5-9.9-2.92-14.82l10.25,10.16,6.78-6.83-10.36-10.27c4.97-2.34,11.09-1.47,15.23,2.62,4.13,4.1,5.05,10.21,2.75,15.21h0Z" fill="none" stroke="#000" stroke-linecap="round" stroke-linejoin="round" stroke-width="4"></path> <path d="m232.59,185.36l-.02-14.05-.04-21.13c0-.98-.8-1.79-1.79-1.79l-19.13.04-.02-9.16c0-3.55-2.91-6.44-6.44-6.43l-36.36.06c-3.54,0-6.43,2.91-6.42,6.45l.02,9.16h-7.19l-12.13.03c-.98,0-1.79.8-1.78,1.79l.03,21.13.02,14.06.04,21.29c0,.78.5,1.44,1.2,1.67.18.07.38.1.58.1l87.68-.16c.98,0,1.78-.8,1.78-1.79l-.04-21.29v.02Zm-62.52-36.85v-3.6c0-2.64,1.67-4,4.92-4.01l24-.04c3.25,0,4.93,1.35,4.94,3.99v3.6l-33.86.06h0Z" fill="none" stroke="#000" stroke-linecap="round" stroke-linejoin="round" stroke-width="4"></path> <path d="m232.51,163.57c.02,14.78-11.85,14.2-11.85,14.2h-3.19v-6.06c0-1.06-.88-1.92-1.94-1.92h-3.97c-1.06,0-1.92.87-1.92,1.93v6.06l-18.61.03h-8.17l-18.28.04v-6.14c0-1.06-.88-1.92-1.94-1.92h-3.97c-1.06,0-1.92.87-1.92,1.93v6.14h-3.53s-11.87.62-11.89-14.16" fill="none" stroke="#000" stroke-linecap="round" stroke-linejoin="round" stroke-width="2"></path> <path d="m161.59,186.56h-1.82c-1.65,0-3-1.34-3-2.99l-.02-10.76c0-1.65,1.35-3,3-3h1.82c1.65,0,3,1.34,3,2.99l.02,10.76c0,1.65-1.35,3-3,3Z" fill="none" stroke="#000" stroke-linecap="round" stroke-linejoin="round" stroke-width="2"></path> <path d="m214.48,186.56h-1.82c-1.65,0-3-1.34-3-2.99l-.02-10.76c0-1.65,1.35-3,3-3h1.82c1.65,0,3,1.34,3,2.99l.02,10.76c0,1.65-1.35,3-3,3Z" fill="none" stroke="#000" stroke-linecap="round" stroke-linejoin="round" stroke-width="2"></path></g></svg>